G04*
G04 #@! TF.GenerationSoftware,Altium Limited,Altium Designer,23.1.1 (15)*
G04*
G04 Layer_Color=8388736*
%FSLAX44Y44*%
%MOMM*%
G71*
G04*
G04 #@! TF.SameCoordinates,A7A263A4-54A1-4128-965A-35385578E642*
G04*
G04*
G04 #@! TF.FilePolarity,Negative*
G04*
G01*
G75*
%ADD21C,1.2700*%
%ADD31R,0.8397X0.2225*%
G04:AMPARAMS|DCode=32|XSize=0.8397mm|YSize=0.2225mm|CornerRadius=0.1112mm|HoleSize=0mm|Usage=FLASHONLY|Rotation=0.000|XOffset=0mm|YOffset=0mm|HoleType=Round|Shape=RoundedRectangle|*
%AMROUNDEDRECTD32*
21,1,0.8397,0.0000,0,0,0.0*
21,1,0.6172,0.2225,0,0,0.0*
1,1,0.2225,0.3086,0.0000*
1,1,0.2225,-0.3086,0.0000*
1,1,0.2225,-0.3086,0.0000*
1,1,0.2225,0.3086,0.0000*
%
%ADD32ROUNDEDRECTD32*%
%ADD44R,0.2393X0.9660*%
G04:AMPARAMS|DCode=45|XSize=0.966mm|YSize=0.2393mm|CornerRadius=0.1196mm|HoleSize=0mm|Usage=FLASHONLY|Rotation=90.000|XOffset=0mm|YOffset=0mm|HoleType=Round|Shape=RoundedRectangle|*
%AMROUNDEDRECTD45*
21,1,0.9660,0.0000,0,0,90.0*
21,1,0.7267,0.2393,0,0,90.0*
1,1,0.2393,0.0000,0.3634*
1,1,0.2393,0.0000,-0.3634*
1,1,0.2393,0.0000,-0.3634*
1,1,0.2393,0.0000,0.3634*
%
%ADD45ROUNDEDRECTD45*%
G04:AMPARAMS|DCode=46|XSize=0.2393mm|YSize=0.966mm|CornerRadius=0.1196mm|HoleSize=0mm|Usage=FLASHONLY|Rotation=90.000|XOffset=0mm|YOffset=0mm|HoleType=Round|Shape=RoundedRectangle|*
%AMROUNDEDRECTD46*
21,1,0.2393,0.7267,0,0,90.0*
21,1,0.0000,0.9660,0,0,90.0*
1,1,0.2393,0.3634,0.0000*
1,1,0.2393,0.3634,0.0000*
1,1,0.2393,-0.3634,0.0000*
1,1,0.2393,-0.3634,0.0000*
%
%ADD46ROUNDEDRECTD46*%
%ADD47R,1.4000X0.9500*%
%ADD48R,1.4562X1.2549*%
%ADD57R,0.9500X1.4000*%
%ADD59R,1.9000X1.1000*%
G04:AMPARAMS|DCode=66|XSize=1.6016mm|YSize=1.4016mm|CornerRadius=0.3758mm|HoleSize=0mm|Usage=FLASHONLY|Rotation=180.000|XOffset=0mm|YOffset=0mm|HoleType=Round|Shape=RoundedRectangle|*
%AMROUNDEDRECTD66*
21,1,1.6016,0.6500,0,0,180.0*
21,1,0.8500,1.4016,0,0,180.0*
1,1,0.7516,-0.4250,0.3250*
1,1,0.7516,0.4250,0.3250*
1,1,0.7516,0.4250,-0.3250*
1,1,0.7516,-0.4250,-0.3250*
%
%ADD66ROUNDEDRECTD66*%
G04:AMPARAMS|DCode=67|XSize=1.0922mm|YSize=1.1938mm|CornerRadius=0.2985mm|HoleSize=0mm|Usage=FLASHONLY|Rotation=180.000|XOffset=0mm|YOffset=0mm|HoleType=Round|Shape=RoundedRectangle|*
%AMROUNDEDRECTD67*
21,1,1.0922,0.5969,0,0,180.0*
21,1,0.4953,1.1938,0,0,180.0*
1,1,0.5969,-0.2477,0.2985*
1,1,0.5969,0.2477,0.2985*
1,1,0.5969,0.2477,-0.2985*
1,1,0.5969,-0.2477,-0.2985*
%
%ADD67ROUNDEDRECTD67*%
G04:AMPARAMS|DCode=68|XSize=1.6016mm|YSize=1.4016mm|CornerRadius=0.2133mm|HoleSize=0mm|Usage=FLASHONLY|Rotation=270.000|XOffset=0mm|YOffset=0mm|HoleType=Round|Shape=RoundedRectangle|*
%AMROUNDEDRECTD68*
21,1,1.6016,0.9750,0,0,270.0*
21,1,1.1750,1.4016,0,0,270.0*
1,1,0.4266,-0.4875,-0.5875*
1,1,0.4266,-0.4875,0.5875*
1,1,0.4266,0.4875,0.5875*
1,1,0.4266,0.4875,-0.5875*
%
%ADD68ROUNDEDRECTD68*%
G04:AMPARAMS|DCode=69|XSize=1.1016mm|YSize=1.2016mm|CornerRadius=0.1758mm|HoleSize=0mm|Usage=FLASHONLY|Rotation=90.000|XOffset=0mm|YOffset=0mm|HoleType=Round|Shape=RoundedRectangle|*
%AMROUNDEDRECTD69*
21,1,1.1016,0.8500,0,0,90.0*
21,1,0.7500,1.2016,0,0,90.0*
1,1,0.3516,0.4250,0.3750*
1,1,0.3516,0.4250,-0.3750*
1,1,0.3516,-0.4250,-0.3750*
1,1,0.3516,-0.4250,0.3750*
%
%ADD69ROUNDEDRECTD69*%
G04:AMPARAMS|DCode=70|XSize=1.6016mm|YSize=1.4016mm|CornerRadius=0.2133mm|HoleSize=0mm|Usage=FLASHONLY|Rotation=0.000|XOffset=0mm|YOffset=0mm|HoleType=Round|Shape=RoundedRectangle|*
%AMROUNDEDRECTD70*
21,1,1.6016,0.9750,0,0,0.0*
21,1,1.1750,1.4016,0,0,0.0*
1,1,0.4266,0.5875,-0.4875*
1,1,0.4266,-0.5875,-0.4875*
1,1,0.4266,-0.5875,0.4875*
1,1,0.4266,0.5875,0.4875*
%
%ADD70ROUNDEDRECTD70*%
%ADD71R,1.4986X0.5334*%
G04:AMPARAMS|DCode=72|XSize=1.1016mm|YSize=1.2016mm|CornerRadius=0.1758mm|HoleSize=0mm|Usage=FLASHONLY|Rotation=180.000|XOffset=0mm|YOffset=0mm|HoleType=Round|Shape=RoundedRectangle|*
%AMROUNDEDRECTD72*
21,1,1.1016,0.8500,0,0,180.0*
21,1,0.7500,1.2016,0,0,180.0*
1,1,0.3516,-0.3750,0.4250*
1,1,0.3516,0.3750,0.4250*
1,1,0.3516,0.3750,-0.4250*
1,1,0.3516,-0.3750,-0.4250*
%
%ADD72ROUNDEDRECTD72*%
G04:AMPARAMS|DCode=73|XSize=0.8016mm|YSize=1.0016mm|CornerRadius=0.1383mm|HoleSize=0mm|Usage=FLASHONLY|Rotation=0.000|XOffset=0mm|YOffset=0mm|HoleType=Round|Shape=RoundedRectangle|*
%AMROUNDEDRECTD73*
21,1,0.8016,0.7250,0,0,0.0*
21,1,0.5250,1.0016,0,0,0.0*
1,1,0.2766,0.2625,-0.3625*
1,1,0.2766,-0.2625,-0.3625*
1,1,0.2766,-0.2625,0.3625*
1,1,0.2766,0.2625,0.3625*
%
%ADD73ROUNDEDRECTD73*%
%ADD74R,1.1516X0.7516*%
%ADD75R,1.6500X2.5500*%
G04:AMPARAMS|DCode=76|XSize=1.6016mm|YSize=1.4016mm|CornerRadius=0.3758mm|HoleSize=0mm|Usage=FLASHONLY|Rotation=270.000|XOffset=0mm|YOffset=0mm|HoleType=Round|Shape=RoundedRectangle|*
%AMROUNDEDRECTD76*
21,1,1.6016,0.6500,0,0,270.0*
21,1,0.8500,1.4016,0,0,270.0*
1,1,0.7516,-0.3250,-0.4250*
1,1,0.7516,-0.3250,0.4250*
1,1,0.7516,0.3250,0.4250*
1,1,0.7516,0.3250,-0.4250*
%
%ADD76ROUNDEDRECTD76*%
G04:AMPARAMS|DCode=77|XSize=1.0922mm|YSize=1.1938mm|CornerRadius=0.2985mm|HoleSize=0mm|Usage=FLASHONLY|Rotation=270.000|XOffset=0mm|YOffset=0mm|HoleType=Round|Shape=RoundedRectangle|*
%AMROUNDEDRECTD77*
21,1,1.0922,0.5969,0,0,270.0*
21,1,0.4953,1.1938,0,0,270.0*
1,1,0.5969,-0.2985,-0.2477*
1,1,0.5969,-0.2985,0.2477*
1,1,0.5969,0.2985,0.2477*
1,1,0.5969,0.2985,-0.2477*
%
%ADD77ROUNDEDRECTD77*%
%ADD78R,2.2400X2.2400*%
%ADD79R,2.1016X2.1016*%
%ADD80R,1.3016X0.8016*%
%ADD81R,0.8016X1.3016*%
%ADD82R,0.5016X1.8516*%
%ADD83R,1.4766X2.6016*%
G04:AMPARAMS|DCode=84|XSize=1.9016mm|YSize=1.7016mm|CornerRadius=0.2508mm|HoleSize=0mm|Usage=FLASHONLY|Rotation=0.000|XOffset=0mm|YOffset=0mm|HoleType=Round|Shape=RoundedRectangle|*
%AMROUNDEDRECTD84*
21,1,1.9016,1.2000,0,0,0.0*
21,1,1.4000,1.7016,0,0,0.0*
1,1,0.5016,0.7000,-0.6000*
1,1,0.5016,-0.7000,-0.6000*
1,1,0.5016,-0.7000,0.6000*
1,1,0.5016,0.7000,0.6000*
%
%ADD84ROUNDEDRECTD84*%
%ADD85C,2.5400*%
G04:AMPARAMS|DCode=86|XSize=1.1116mm|YSize=1.5716mm|CornerRadius=0.1771mm|HoleSize=0mm|Usage=FLASHONLY|Rotation=90.000|XOffset=0mm|YOffset=0mm|HoleType=Round|Shape=RoundedRectangle|*
%AMROUNDEDRECTD86*
21,1,1.1116,1.2175,0,0,90.0*
21,1,0.7575,1.5716,0,0,90.0*
1,1,0.3541,0.6088,0.3787*
1,1,0.3541,0.6088,-0.3787*
1,1,0.3541,-0.6088,-0.3787*
1,1,0.3541,-0.6088,0.3787*
%
%ADD86ROUNDEDRECTD86*%
G04:AMPARAMS|DCode=87|XSize=1.9016mm|YSize=1.7016mm|CornerRadius=0.2508mm|HoleSize=0mm|Usage=FLASHONLY|Rotation=270.000|XOffset=0mm|YOffset=0mm|HoleType=Round|Shape=RoundedRectangle|*
%AMROUNDEDRECTD87*
21,1,1.9016,1.2000,0,0,270.0*
21,1,1.4000,1.7016,0,0,270.0*
1,1,0.5016,-0.6000,-0.7000*
1,1,0.5016,-0.6000,0.7000*
1,1,0.5016,0.6000,0.7000*
1,1,0.5016,0.6000,-0.7000*
%
%ADD87ROUNDEDRECTD87*%
G04:AMPARAMS|DCode=88|XSize=1.1116mm|YSize=1.5716mm|CornerRadius=0.1771mm|HoleSize=0mm|Usage=FLASHONLY|Rotation=180.000|XOffset=0mm|YOffset=0mm|HoleType=Round|Shape=RoundedRectangle|*
%AMROUNDEDRECTD88*
21,1,1.1116,1.2175,0,0,180.0*
21,1,0.7575,1.5716,0,0,180.0*
1,1,0.3541,-0.3787,0.6088*
1,1,0.3541,0.3787,0.6088*
1,1,0.3541,0.3787,-0.6088*
1,1,0.3541,-0.3787,-0.6088*
%
%ADD88ROUNDEDRECTD88*%
%ADD89R,1.6800X1.6800*%
%ADD90R,0.8016X0.7016*%
%ADD91R,0.8016X1.1016*%
%ADD92R,0.9516X0.5016*%
%ADD93R,1.0016X0.7516*%
G04:AMPARAMS|DCode=94|XSize=0.6016mm|YSize=0.6016mm|CornerRadius=0.1133mm|HoleSize=0mm|Usage=FLASHONLY|Rotation=0.000|XOffset=0mm|YOffset=0mm|HoleType=Round|Shape=RoundedRectangle|*
%AMROUNDEDRECTD94*
21,1,0.6016,0.3750,0,0,0.0*
21,1,0.3750,0.6016,0,0,0.0*
1,1,0.2266,0.1875,-0.1875*
1,1,0.2266,-0.1875,-0.1875*
1,1,0.2266,-0.1875,0.1875*
1,1,0.2266,0.1875,0.1875*
%
%ADD94ROUNDEDRECTD94*%
%ADD95R,0.5016X1.2016*%
G04:AMPARAMS|DCode=96|XSize=0.8016mm|YSize=1.0016mm|CornerRadius=0.1383mm|HoleSize=0mm|Usage=FLASHONLY|Rotation=270.000|XOffset=0mm|YOffset=0mm|HoleType=Round|Shape=RoundedRectangle|*
%AMROUNDEDRECTD96*
21,1,0.8016,0.7250,0,0,270.0*
21,1,0.5250,1.0016,0,0,270.0*
1,1,0.2766,-0.3625,-0.2625*
1,1,0.2766,-0.3625,0.2625*
1,1,0.2766,0.3625,0.2625*
1,1,0.2766,0.3625,-0.2625*
%
%ADD96ROUNDEDRECTD96*%
%ADD97R,0.9016X1.0016*%
%ADD98R,1.5716X1.3016*%
%ADD99R,2.0016X1.4516*%
%ADD100R,1.3016X1.1016*%
%ADD101R,1.6516X1.4516*%
%ADD102R,0.9516X1.2016*%
%ADD103R,0.8516X1.2016*%
%ADD104R,1.2716X1.9016*%
%ADD105C,1.9016*%
%ADD106R,1.9016X1.9016*%
%ADD107C,1.1074*%
%ADD108O,1.1016X1.9016*%
%ADD109O,1.1016X1.5616*%
%ADD110C,3.7016*%
%ADD111C,0.6096*%
G36*
X74023Y600340D02*
X96023D01*
Y583740D01*
X74023D01*
Y600340D01*
D02*
G37*
G36*
Y611340D02*
X70523D01*
X70263Y611350D01*
X70003Y611370D01*
X69743Y611400D01*
X69483Y611450D01*
X69233Y611510D01*
X68973Y611580D01*
X68733Y611670D01*
X68493Y611770D01*
X68253Y611880D01*
X68023Y612010D01*
X67803Y612150D01*
X67583Y612290D01*
X67373Y612450D01*
X67173Y612620D01*
X66983Y612800D01*
X66803Y612990D01*
X66633Y613190D01*
X66473Y613400D01*
X66333Y613620D01*
X66193Y613840D01*
X66063Y614070D01*
X65953Y614310D01*
X65853Y614550D01*
X65763Y614790D01*
X65693Y615050D01*
X65633Y615300D01*
X65583Y615560D01*
X65553Y615820D01*
X65533Y616080D01*
X65523Y616340D01*
Y629340D01*
X65533Y629600D01*
X65553Y629860D01*
X65583Y630120D01*
X65633Y630380D01*
X65693Y630630D01*
X65763Y630890D01*
X65853Y631130D01*
X65953Y631370D01*
X66063Y631610D01*
X66193Y631840D01*
X66333Y632060D01*
X66473Y632280D01*
X66633Y632490D01*
X66803Y632690D01*
X66983Y632880D01*
X67173Y633060D01*
X67373Y633230D01*
X67583Y633390D01*
X67803Y633530D01*
X68023Y633670D01*
X68253Y633800D01*
X68493Y633910D01*
X68733Y634010D01*
X68973Y634100D01*
X69233Y634170D01*
X69483Y634230D01*
X69743Y634280D01*
X70003Y634310D01*
X70263Y634330D01*
X70523Y634340D01*
X83773D01*
Y622840D01*
X83783Y622500D01*
X83813Y622160D01*
X83853Y621820D01*
X83913Y621490D01*
X83993Y621160D01*
X84093Y620830D01*
X84203Y620510D01*
X84333Y620200D01*
X84483Y619890D01*
X84643Y619590D01*
X84823Y619300D01*
X85013Y619020D01*
X85223Y618750D01*
X85443Y618490D01*
X85673Y618240D01*
X85923Y618010D01*
X86183Y617790D01*
X86453Y617580D01*
X86733Y617390D01*
X87023Y617210D01*
X87323Y617050D01*
X87633Y616900D01*
X87943Y616770D01*
X88263Y616660D01*
X88593Y616560D01*
X88923Y616480D01*
X89253Y616420D01*
X89593Y616380D01*
X89933Y616350D01*
X90273Y616340D01*
X94273D01*
Y601549D01*
X74023D01*
Y611340D01*
D02*
G37*
G36*
X132023Y600340D02*
X154023D01*
Y583740D01*
X132023D01*
Y600340D01*
D02*
G37*
G36*
X133773Y616340D02*
X137773D01*
X138113Y616350D01*
X138453Y616380D01*
X138793Y616420D01*
X139123Y616480D01*
X139453Y616560D01*
X139783Y616660D01*
X140103Y616770D01*
X140413Y616900D01*
X140723Y617050D01*
X141023Y617210D01*
X141313Y617390D01*
X141593Y617580D01*
X141863Y617790D01*
X142123Y618010D01*
X142373Y618240D01*
X142603Y618490D01*
X142823Y618750D01*
X143033Y619020D01*
X143223Y619300D01*
X143403Y619590D01*
X143563Y619890D01*
X143713Y620200D01*
X143843Y620510D01*
X143953Y620830D01*
X144053Y621160D01*
X144133Y621490D01*
X144193Y621820D01*
X144233Y622160D01*
X144263Y622500D01*
X144273Y622840D01*
Y634340D01*
X157523D01*
X157783Y634330D01*
X158043Y634310D01*
X158303Y634280D01*
X158563Y634230D01*
X158813Y634170D01*
X159073Y634100D01*
X159313Y634010D01*
X159553Y633910D01*
X159793Y633800D01*
X160023Y633670D01*
X160243Y633530D01*
X160463Y633390D01*
X160673Y633230D01*
X160873Y633060D01*
X161063Y632880D01*
X161243Y632690D01*
X161413Y632490D01*
X161573Y632280D01*
X161713Y632060D01*
X161853Y631840D01*
X161983Y631610D01*
X162093Y631370D01*
X162193Y631130D01*
X162283Y630890D01*
X162353Y630630D01*
X162413Y630380D01*
X162463Y630120D01*
X162493Y629860D01*
X162513Y629600D01*
X162523Y629340D01*
Y616340D01*
X162513Y616080D01*
X162493Y615820D01*
X162463Y615560D01*
X162413Y615300D01*
X162353Y615050D01*
X162283Y614790D01*
X162193Y614550D01*
X162093Y614310D01*
X161983Y614070D01*
X161853Y613840D01*
X161713Y613620D01*
X161573Y613400D01*
X161413Y613190D01*
X161243Y612990D01*
X161063Y612800D01*
X160873Y612620D01*
X160673Y612450D01*
X160463Y612290D01*
X160243Y612150D01*
X160023Y612010D01*
X159793Y611880D01*
X159553Y611770D01*
X159313Y611670D01*
X159073Y611580D01*
X158813Y611510D01*
X158563Y611450D01*
X158303Y611400D01*
X158043Y611370D01*
X157783Y611350D01*
X157523Y611340D01*
X154023D01*
Y601394D01*
X133773D01*
Y616340D01*
D02*
G37*
D21*
X279146Y138176D02*
D03*
X549402Y31242D02*
D03*
X659130Y151892D02*
D03*
X522986Y81280D02*
D03*
X429768Y180594D02*
D03*
X369824Y104140D02*
D03*
X283718Y60706D02*
D03*
X102362Y46228D02*
D03*
X72644Y61976D02*
D03*
X402590Y77470D02*
D03*
X230886Y165354D02*
D03*
X56642Y122936D02*
D03*
X423164Y64516D02*
D03*
X358648Y149860D02*
D03*
X153670Y480314D02*
D03*
X409448Y219732D02*
D03*
Y264060D02*
D03*
X388366Y297180D02*
D03*
X560578Y127784D02*
D03*
X614680Y472599D02*
D03*
X576500Y513755D02*
D03*
X542742D02*
D03*
Y571863D02*
D03*
X160249Y454879D02*
D03*
X224555Y445182D02*
D03*
X415995Y455199D02*
D03*
X414913Y487212D02*
D03*
X417923Y426364D02*
D03*
X205453Y484086D02*
D03*
X542742Y608956D02*
D03*
D31*
X94811Y483182D02*
D03*
D32*
Y478682D02*
D03*
Y474182D02*
D03*
Y469682D02*
D03*
Y465182D02*
D03*
Y460682D02*
D03*
X123121D02*
D03*
Y465182D02*
D03*
Y469682D02*
D03*
Y474182D02*
D03*
Y478682D02*
D03*
Y483182D02*
D03*
D44*
X262491Y474029D02*
D03*
D45*
X267491D02*
D03*
X272491D02*
D03*
X277491D02*
D03*
Y503490D02*
D03*
X272491D02*
D03*
X267491D02*
D03*
X262491D02*
D03*
D46*
X284722Y481260D02*
D03*
Y486260D02*
D03*
Y491260D02*
D03*
Y496260D02*
D03*
X255261D02*
D03*
Y491260D02*
D03*
Y486260D02*
D03*
Y481260D02*
D03*
D47*
X614680Y428392D02*
D03*
Y446892D02*
D03*
X423508Y28432D02*
D03*
Y46932D02*
D03*
X560578Y368668D02*
D03*
Y350168D02*
D03*
D48*
X41402Y571604D02*
D03*
Y555092D02*
D03*
D57*
X55822Y96774D02*
D03*
X37322D02*
D03*
Y60452D02*
D03*
X55822D02*
D03*
D59*
X391414Y321002D02*
D03*
Y346002D02*
D03*
D66*
X543814Y82194D02*
D03*
Y101194D02*
D03*
X469247Y100862D02*
D03*
Y81862D02*
D03*
X318398Y464160D02*
D03*
Y445160D02*
D03*
X576970Y493217D02*
D03*
Y474217D02*
D03*
X35052Y460961D02*
D03*
Y479961D02*
D03*
X336363Y169460D02*
D03*
Y150460D02*
D03*
X513943Y328592D02*
D03*
Y347592D02*
D03*
X182869Y114910D02*
D03*
Y95910D02*
D03*
Y49364D02*
D03*
Y68364D02*
D03*
X141281Y49790D02*
D03*
Y68790D02*
D03*
Y115336D02*
D03*
Y96336D02*
D03*
X613246Y152502D02*
D03*
Y133502D02*
D03*
D67*
X266599Y62238D02*
D03*
Y79238D02*
D03*
X645334Y344542D02*
D03*
X644826Y401184D02*
D03*
X242570Y429184D02*
D03*
Y446184D02*
D03*
X267462Y101110D02*
D03*
Y118110D02*
D03*
X644826Y384184D02*
D03*
X546998Y442687D02*
D03*
Y425687D02*
D03*
X521970Y513755D02*
D03*
Y530755D02*
D03*
Y554863D02*
D03*
Y571863D02*
D03*
X636520Y87552D02*
D03*
Y70552D02*
D03*
X99829Y500770D02*
D03*
Y517770D02*
D03*
X645334Y327542D02*
D03*
X644826Y443826D02*
D03*
Y426826D02*
D03*
X484540Y292544D02*
D03*
Y275544D02*
D03*
X119131Y517770D02*
D03*
Y500770D02*
D03*
D68*
X475590Y181610D02*
D03*
X456590D02*
D03*
X322478Y208026D02*
D03*
X341478D02*
D03*
X175362Y180848D02*
D03*
X156362D02*
D03*
D69*
X422882Y103378D02*
D03*
X439882D02*
D03*
X222453Y500770D02*
D03*
X205453D02*
D03*
X433936Y256032D02*
D03*
X450936D02*
D03*
X57213Y460626D02*
D03*
X74213D02*
D03*
Y478837D02*
D03*
X57213D02*
D03*
X102090Y537210D02*
D03*
X85090D02*
D03*
X137020D02*
D03*
X120020D02*
D03*
D70*
X495554Y81614D02*
D03*
Y100614D02*
D03*
X249953Y535758D02*
D03*
Y554758D02*
D03*
X267623Y449072D02*
D03*
Y430072D02*
D03*
X389449Y28182D02*
D03*
Y47182D02*
D03*
X40953Y512442D02*
D03*
Y531442D02*
D03*
D71*
X458971Y150898D02*
D03*
Y144548D02*
D03*
Y137944D02*
D03*
Y131594D02*
D03*
X504183D02*
D03*
Y137944D02*
D03*
Y144548D02*
D03*
Y150898D02*
D03*
D72*
X542429Y122576D02*
D03*
Y139576D02*
D03*
X364744Y324104D02*
D03*
Y307104D02*
D03*
X493894Y488329D02*
D03*
Y471329D02*
D03*
X579002Y425433D02*
D03*
Y442433D02*
D03*
X62783Y533084D02*
D03*
Y516084D02*
D03*
X66758Y554319D02*
D03*
Y571319D02*
D03*
X385590Y77614D02*
D03*
Y94614D02*
D03*
X364418Y347608D02*
D03*
Y364608D02*
D03*
X521970Y608956D02*
D03*
Y591956D02*
D03*
D73*
X299720Y40790D02*
D03*
Y27790D02*
D03*
Y63096D02*
D03*
Y76096D02*
D03*
X265430Y136248D02*
D03*
Y149248D02*
D03*
X265176Y26266D02*
D03*
Y39266D02*
D03*
X615786Y84046D02*
D03*
Y71046D02*
D03*
D74*
X627732Y351028D02*
D03*
X625605Y398272D02*
D03*
X586232Y351028D02*
D03*
X584105Y398272D02*
D03*
X627732Y329528D02*
D03*
X586232D02*
D03*
X625605Y376772D02*
D03*
X584105D02*
D03*
X420898Y350186D02*
D03*
X462398D02*
D03*
Y328686D02*
D03*
X420898D02*
D03*
D75*
X108966Y471932D02*
D03*
D76*
X157163Y390652D02*
D03*
X138163D02*
D03*
X514198Y444464D02*
D03*
X495198D02*
D03*
X338547Y122876D02*
D03*
X357547D02*
D03*
D77*
X450936Y282156D02*
D03*
X433936D02*
D03*
X224992Y462276D02*
D03*
X207992D02*
D03*
X335144Y530755D02*
D03*
X318144D02*
D03*
X612258Y306832D02*
D03*
X595258D02*
D03*
X335398Y556260D02*
D03*
X318398D02*
D03*
X117598Y412750D02*
D03*
X100598D02*
D03*
X30598Y432497D02*
D03*
X47598D02*
D03*
X450936Y308076D02*
D03*
X433936D02*
D03*
X376550Y487212D02*
D03*
X393550D02*
D03*
X378478Y426720D02*
D03*
X395478D02*
D03*
X376550Y456183D02*
D03*
X393550D02*
D03*
X229867Y144834D02*
D03*
X212867D02*
D03*
X230375Y67962D02*
D03*
X213375D02*
D03*
X223357Y526363D02*
D03*
X206357D02*
D03*
D78*
X122703Y302864D02*
D03*
X144883D02*
D03*
X122703Y281044D02*
D03*
X144883D02*
D03*
D79*
X245263Y300804D02*
D03*
X273813D02*
D03*
X245263Y271564D02*
D03*
X273813D02*
D03*
D80*
X324363Y244378D02*
D03*
Y352378D02*
D03*
Y340378D02*
D03*
Y328378D02*
D03*
Y316378D02*
D03*
Y304378D02*
D03*
Y292378D02*
D03*
Y280378D02*
D03*
Y268378D02*
D03*
Y256378D02*
D03*
Y232378D02*
D03*
D81*
X81953Y359418D02*
D03*
X93953D02*
D03*
X105953D02*
D03*
X117953D02*
D03*
X129953D02*
D03*
X141953D02*
D03*
X153953D02*
D03*
X165953D02*
D03*
X177953D02*
D03*
X189953D02*
D03*
X201953D02*
D03*
X213953D02*
D03*
X225953D02*
D03*
X237953D02*
D03*
X249953D02*
D03*
X261953D02*
D03*
X273953D02*
D03*
X285953D02*
D03*
X297953D02*
D03*
X309953D02*
D03*
Y225418D02*
D03*
X297953D02*
D03*
X285953D02*
D03*
X273953D02*
D03*
X261953D02*
D03*
X249953D02*
D03*
X237953D02*
D03*
X225953D02*
D03*
X213953D02*
D03*
X201953D02*
D03*
X189953D02*
D03*
X177953D02*
D03*
X165953D02*
D03*
X153953D02*
D03*
X141953D02*
D03*
X129953D02*
D03*
X117953D02*
D03*
X105953D02*
D03*
X93953D02*
D03*
X81953D02*
D03*
D82*
X101023Y594090D02*
D03*
X114023D02*
D03*
X120523D02*
D03*
X127023D02*
D03*
X107523D02*
D03*
D83*
X123398Y624840D02*
D03*
X104648D02*
D03*
D84*
X581242Y157764D02*
D03*
Y129764D02*
D03*
D85*
X17526Y586486D02*
D03*
X656844Y55372D02*
D03*
X64520Y23562D02*
D03*
D86*
X484540Y246767D02*
D03*
Y227167D02*
D03*
X297953Y145041D02*
D03*
Y125441D02*
D03*
X486765Y346877D02*
D03*
Y327277D02*
D03*
D87*
X609564Y30104D02*
D03*
X581564D02*
D03*
D88*
X276154Y555364D02*
D03*
X295754D02*
D03*
X275971Y530755D02*
D03*
X295571D02*
D03*
X114517Y390652D02*
D03*
X94917D02*
D03*
X118897Y434947D02*
D03*
X99297D02*
D03*
D89*
X269991Y488760D02*
D03*
D90*
X99571Y553364D02*
D03*
Y572364D02*
D03*
X119571D02*
D03*
D91*
Y555364D02*
D03*
D92*
X357072Y70974D02*
D03*
Y62974D02*
D03*
Y54974D02*
D03*
Y46974D02*
D03*
Y38974D02*
D03*
Y30974D02*
D03*
Y22974D02*
D03*
X333072D02*
D03*
Y30974D02*
D03*
Y38974D02*
D03*
Y46974D02*
D03*
Y54974D02*
D03*
Y62974D02*
D03*
Y70974D02*
D03*
D93*
X523822Y487882D02*
D03*
Y478382D02*
D03*
Y468883D02*
D03*
X547822D02*
D03*
Y487882D02*
D03*
D94*
X86896Y105472D02*
D03*
Y97472D02*
D03*
Y89472D02*
D03*
Y81272D02*
D03*
X110896Y81472D02*
D03*
Y89472D02*
D03*
Y97472D02*
D03*
Y105472D02*
D03*
D95*
X595564Y57764D02*
D03*
X589064D02*
D03*
X582564D02*
D03*
X576064D02*
D03*
Y102764D02*
D03*
X582564D02*
D03*
X589064D02*
D03*
X595564D02*
D03*
D96*
X355055Y94620D02*
D03*
X342055D02*
D03*
X101586Y62230D02*
D03*
X88586D02*
D03*
X87453Y147238D02*
D03*
X100453D02*
D03*
D97*
X231817Y111250D02*
D03*
X212816D02*
D03*
X222316Y91250D02*
D03*
X231817Y42982D02*
D03*
X212816D02*
D03*
X222316Y22982D02*
D03*
D98*
X640170Y134156D02*
D03*
Y152356D02*
D03*
D99*
X474613Y516613D02*
D03*
X414913D02*
D03*
D100*
X379913Y563363D02*
D03*
Y526363D02*
D03*
D101*
X381663Y623613D02*
D03*
D102*
X406263Y624863D02*
D03*
X417263D02*
D03*
X428263D02*
D03*
X439263D02*
D03*
X450263D02*
D03*
X461263D02*
D03*
X472263D02*
D03*
D103*
X482763D02*
D03*
D104*
X494863Y621363D02*
D03*
D105*
X462280Y33274D02*
D03*
X487680D02*
D03*
X271781Y607090D02*
D03*
X297181D02*
D03*
D106*
X513080Y33274D02*
D03*
X246381Y607090D02*
D03*
D107*
X388366Y226314D02*
D03*
X375666D02*
D03*
Y251714D02*
D03*
Y239014D02*
D03*
X388366Y251714D02*
D03*
Y239014D02*
D03*
Y264414D02*
D03*
Y277114D02*
D03*
X375666Y264414D02*
D03*
Y277114D02*
D03*
D108*
X155023Y622840D02*
D03*
X73023D02*
D03*
D109*
X138273Y592040D02*
D03*
X89773D02*
D03*
D110*
X24008Y618918D02*
D03*
X649732Y619252D02*
D03*
X25654Y24638D02*
D03*
X649732Y23368D02*
D03*
D111*
X442214Y172720D02*
D03*
X111506Y62230D02*
D03*
X625348Y409194D02*
D03*
X573278Y398272D02*
D03*
X585216Y360934D02*
D03*
X627634D02*
D03*
X79756Y439674D02*
D03*
Y449326D02*
D03*
X385826Y67818D02*
D03*
X312166Y75184D02*
D03*
X355055Y105546D02*
D03*
X321564Y54398D02*
D03*
X125476Y16256D02*
D03*
X560578Y81534D02*
D03*
X510794Y82042D02*
D03*
X510540Y100584D02*
D03*
X463296Y14986D02*
D03*
X488442Y7112D02*
D03*
X322326Y7874D02*
D03*
X512572Y18288D02*
D03*
X312674Y188976D02*
D03*
X451986Y81424D02*
D03*
X521970Y145034D02*
D03*
X486156Y165608D02*
D03*
X441882Y181610D02*
D03*
X492252Y181356D02*
D03*
X476250Y136652D02*
D03*
X280162Y79502D02*
D03*
Y117856D02*
D03*
X287528Y27432D02*
D03*
X313944Y16002D02*
D03*
X275082Y39624D02*
D03*
X247411Y112138D02*
D03*
X310388Y209804D02*
D03*
X157163Y406699D02*
D03*
X358648Y208280D02*
D03*
X354255Y217424D02*
D03*
Y270856D02*
D03*
X420878Y281432D02*
D03*
X402899Y297180D02*
D03*
Y277114D02*
D03*
X420624Y256032D02*
D03*
X470154Y270510D02*
D03*
Y281178D02*
D03*
X317500Y412750D02*
D03*
X335073Y406699D02*
D03*
X94234Y105410D02*
D03*
X129953Y556634D02*
D03*
X61214Y432816D02*
D03*
X366268Y624332D02*
D03*
X461263Y608956D02*
D03*
X472263Y609020D02*
D03*
X335398Y485035D02*
D03*
X482092Y489074D02*
D03*
X193191Y525858D02*
D03*
X207776Y449072D02*
D03*
X291966Y449625D02*
D03*
X302260Y463988D02*
D03*
X193191Y500601D02*
D03*
X368237Y525858D02*
D03*
X346941Y556028D02*
D03*
X420624Y361141D02*
D03*
X379180Y364608D02*
D03*
X245263Y67962D02*
D03*
X240167Y88226D02*
D03*
X57213Y491135D02*
D03*
X7620Y176276D02*
D03*
X25146Y175514D02*
D03*
X51562Y176276D02*
D03*
X72390Y185674D02*
D03*
X72773Y212344D02*
D03*
Y244378D02*
D03*
X72390Y278384D02*
D03*
X72773Y304378D02*
D03*
Y331216D02*
D03*
Y355918D02*
D03*
X73023Y375412D02*
D03*
X72773Y392684D02*
D03*
X61508Y410203D02*
D03*
X37555D02*
D03*
X13933D02*
D03*
X309898Y348408D02*
D03*
X189484D02*
D03*
X189953Y239522D02*
D03*
X189484Y181864D02*
D03*
X274320Y240284D02*
D03*
X309172Y239522D02*
D03*
X289975Y271564D02*
D03*
X144883Y262282D02*
D03*
X88138Y237490D02*
D03*
X88413Y345830D02*
D03*
X596846Y129764D02*
D03*
X343116Y47182D02*
D03*
X20066Y60452D02*
D03*
X71628Y147238D02*
D03*
X197948Y8382D02*
D03*
X284139Y449800D02*
D03*
X474613Y459799D02*
D03*
X339934Y445160D02*
D03*
X222453Y486409D02*
D03*
X137813Y180848D02*
D03*
X95504Y331216D02*
D03*
X95023Y374170D02*
D03*
X74213Y429768D02*
D03*
X85863Y412750D02*
D03*
X24008Y530883D02*
D03*
X151398Y537286D02*
D03*
X85023Y516084D02*
D03*
X57213Y449800D02*
D03*
X81953Y571319D02*
D03*
X148336Y340378D02*
D03*
X141853Y348408D02*
D03*
Y440332D02*
D03*
X148336Y467872D02*
D03*
X232845Y539729D02*
D03*
X230508Y429768D02*
D03*
X561488Y425687D02*
D03*
X514096Y477774D02*
D03*
X429006Y455359D02*
D03*
Y426720D02*
D03*
X428263Y487212D02*
D03*
X369062Y411734D02*
D03*
Y387099D02*
D03*
X345435Y398502D02*
D03*
X508032Y563363D02*
D03*
X557956Y608956D02*
D03*
X542036Y530755D02*
D03*
Y554863D02*
D03*
Y591956D02*
D03*
X357806Y390652D02*
D03*
X273978Y385342D02*
D03*
X345435Y455014D02*
D03*
X273330Y335534D02*
D03*
X591820Y493217D02*
D03*
X597662Y447548D02*
D03*
X580800Y306832D02*
D03*
X542742Y350168D02*
D03*
X530199Y347592D02*
D03*
X470333Y292378D02*
D03*
X352044Y306578D02*
D03*
X355055Y183257D02*
D03*
X284226Y596392D02*
D03*
X322662Y503556D02*
D03*
X314706Y62974D02*
D03*
X120489Y147730D02*
D03*
X120659Y97642D02*
D03*
X627380Y30480D02*
D03*
X562610Y31242D02*
D03*
X440177Y28702D02*
D03*
X405192Y27432D02*
D03*
X367859Y54974D02*
D03*
X405638Y46736D02*
D03*
X314706Y123698D02*
D03*
X254762Y345186D02*
D03*
X253673Y22982D02*
D03*
X247411Y144834D02*
D03*
X197866Y115824D02*
D03*
X124714Y49364D02*
D03*
X253673Y61752D02*
D03*
X507559Y513755D02*
D03*
X428263Y608956D02*
D03*
X357806D02*
D03*
X591820Y426212D02*
D03*
X450263Y608956D02*
D03*
X24008Y511246D02*
D03*
X136273Y468276D02*
D03*
X318262Y426720D02*
D03*
X560578Y102764D02*
D03*
Y157764D02*
D03*
X652272Y72136D02*
D03*
X321564Y150216D02*
D03*
X372952Y122546D02*
D03*
X398272Y94620D02*
D03*
X225953Y348408D02*
D03*
X213953Y375412D02*
D03*
X165953D02*
D03*
X201558D02*
D03*
X213953Y239522D02*
D03*
X201953D02*
D03*
X166370D02*
D03*
X20066Y97472D02*
D03*
M02*
