G04*
G04 #@! TF.GenerationSoftware,Altium Limited,Altium Designer,23.1.1 (15)*
G04*
G04 Layer_Physical_Order=1*
G04 Layer_Color=255*
%FSLAX44Y44*%
%MOMM*%
G71*
G04*
G04 #@! TF.SameCoordinates,A7A263A4-54A1-4128-965A-35385578E642*
G04*
G04*
G04 #@! TF.FilePolarity,Positive*
G04*
G01*
G75*
%ADD10C,0.1524*%
%ADD13C,0.2540*%
%ADD18C,0.2032*%
%ADD21C,1.2700*%
G04:AMPARAMS|DCode=22|XSize=1.5mm|YSize=1.3mm|CornerRadius=0.325mm|HoleSize=0mm|Usage=FLASHONLY|Rotation=180.000|XOffset=0mm|YOffset=0mm|HoleType=Round|Shape=RoundedRectangle|*
%AMROUNDEDRECTD22*
21,1,1.5000,0.6500,0,0,180.0*
21,1,0.8500,1.3000,0,0,180.0*
1,1,0.6500,-0.4250,0.3250*
1,1,0.6500,0.4250,0.3250*
1,1,0.6500,0.4250,-0.3250*
1,1,0.6500,-0.4250,-0.3250*
%
%ADD22ROUNDEDRECTD22*%
G04:AMPARAMS|DCode=23|XSize=0.9906mm|YSize=1.0922mm|CornerRadius=0.2477mm|HoleSize=0mm|Usage=FLASHONLY|Rotation=180.000|XOffset=0mm|YOffset=0mm|HoleType=Round|Shape=RoundedRectangle|*
%AMROUNDEDRECTD23*
21,1,0.9906,0.5969,0,0,180.0*
21,1,0.4953,1.0922,0,0,180.0*
1,1,0.4953,-0.2477,0.2985*
1,1,0.4953,0.2477,0.2985*
1,1,0.4953,0.2477,-0.2985*
1,1,0.4953,-0.2477,-0.2985*
%
%ADD23ROUNDEDRECTD23*%
G04:AMPARAMS|DCode=24|XSize=1.5mm|YSize=1.3mm|CornerRadius=0.1625mm|HoleSize=0mm|Usage=FLASHONLY|Rotation=270.000|XOffset=0mm|YOffset=0mm|HoleType=Round|Shape=RoundedRectangle|*
%AMROUNDEDRECTD24*
21,1,1.5000,0.9750,0,0,270.0*
21,1,1.1750,1.3000,0,0,270.0*
1,1,0.3250,-0.4875,-0.5875*
1,1,0.3250,-0.4875,0.5875*
1,1,0.3250,0.4875,0.5875*
1,1,0.3250,0.4875,-0.5875*
%
%ADD24ROUNDEDRECTD24*%
G04:AMPARAMS|DCode=25|XSize=1mm|YSize=1.1mm|CornerRadius=0.125mm|HoleSize=0mm|Usage=FLASHONLY|Rotation=90.000|XOffset=0mm|YOffset=0mm|HoleType=Round|Shape=RoundedRectangle|*
%AMROUNDEDRECTD25*
21,1,1.0000,0.8500,0,0,90.0*
21,1,0.7500,1.1000,0,0,90.0*
1,1,0.2500,0.4250,0.3750*
1,1,0.2500,0.4250,-0.3750*
1,1,0.2500,-0.4250,-0.3750*
1,1,0.2500,-0.4250,0.3750*
%
%ADD25ROUNDEDRECTD25*%
G04:AMPARAMS|DCode=26|XSize=1.5mm|YSize=1.3mm|CornerRadius=0.1625mm|HoleSize=0mm|Usage=FLASHONLY|Rotation=0.000|XOffset=0mm|YOffset=0mm|HoleType=Round|Shape=RoundedRectangle|*
%AMROUNDEDRECTD26*
21,1,1.5000,0.9750,0,0,0.0*
21,1,1.1750,1.3000,0,0,0.0*
1,1,0.3250,0.5875,-0.4875*
1,1,0.3250,-0.5875,-0.4875*
1,1,0.3250,-0.5875,0.4875*
1,1,0.3250,0.5875,0.4875*
%
%ADD26ROUNDEDRECTD26*%
%ADD27R,1.3970X0.4318*%
G04:AMPARAMS|DCode=28|XSize=1mm|YSize=1.1mm|CornerRadius=0.125mm|HoleSize=0mm|Usage=FLASHONLY|Rotation=180.000|XOffset=0mm|YOffset=0mm|HoleType=Round|Shape=RoundedRectangle|*
%AMROUNDEDRECTD28*
21,1,1.0000,0.8500,0,0,180.0*
21,1,0.7500,1.1000,0,0,180.0*
1,1,0.2500,-0.3750,0.4250*
1,1,0.2500,0.3750,0.4250*
1,1,0.2500,0.3750,-0.4250*
1,1,0.2500,-0.3750,-0.4250*
%
%ADD28ROUNDEDRECTD28*%
G04:AMPARAMS|DCode=29|XSize=0.7mm|YSize=0.9mm|CornerRadius=0.0875mm|HoleSize=0mm|Usage=FLASHONLY|Rotation=0.000|XOffset=0mm|YOffset=0mm|HoleType=Round|Shape=RoundedRectangle|*
%AMROUNDEDRECTD29*
21,1,0.7000,0.7250,0,0,0.0*
21,1,0.5250,0.9000,0,0,0.0*
1,1,0.1750,0.2625,-0.3625*
1,1,0.1750,-0.2625,-0.3625*
1,1,0.1750,-0.2625,0.3625*
1,1,0.1750,0.2625,0.3625*
%
%ADD29ROUNDEDRECTD29*%
%ADD30R,1.0500X0.6500*%
%ADD31R,0.8397X0.2225*%
G04:AMPARAMS|DCode=32|XSize=0.8397mm|YSize=0.2225mm|CornerRadius=0.1112mm|HoleSize=0mm|Usage=FLASHONLY|Rotation=0.000|XOffset=0mm|YOffset=0mm|HoleType=Round|Shape=RoundedRectangle|*
%AMROUNDEDRECTD32*
21,1,0.8397,0.0000,0,0,0.0*
21,1,0.6172,0.2225,0,0,0.0*
1,1,0.2225,0.3086,0.0000*
1,1,0.2225,-0.3086,0.0000*
1,1,0.2225,-0.3086,0.0000*
1,1,0.2225,0.3086,0.0000*
%
%ADD32ROUNDEDRECTD32*%
G04:AMPARAMS|DCode=33|XSize=1.5mm|YSize=1.3mm|CornerRadius=0.325mm|HoleSize=0mm|Usage=FLASHONLY|Rotation=270.000|XOffset=0mm|YOffset=0mm|HoleType=Round|Shape=RoundedRectangle|*
%AMROUNDEDRECTD33*
21,1,1.5000,0.6500,0,0,270.0*
21,1,0.8500,1.3000,0,0,270.0*
1,1,0.6500,-0.3250,-0.4250*
1,1,0.6500,-0.3250,0.4250*
1,1,0.6500,0.3250,0.4250*
1,1,0.6500,0.3250,-0.4250*
%
%ADD33ROUNDEDRECTD33*%
G04:AMPARAMS|DCode=34|XSize=0.9906mm|YSize=1.0922mm|CornerRadius=0.2477mm|HoleSize=0mm|Usage=FLASHONLY|Rotation=270.000|XOffset=0mm|YOffset=0mm|HoleType=Round|Shape=RoundedRectangle|*
%AMROUNDEDRECTD34*
21,1,0.9906,0.5969,0,0,270.0*
21,1,0.4953,1.0922,0,0,270.0*
1,1,0.4953,-0.2985,-0.2477*
1,1,0.4953,-0.2985,0.2477*
1,1,0.4953,0.2985,0.2477*
1,1,0.4953,0.2985,-0.2477*
%
%ADD34ROUNDEDRECTD34*%
%ADD35R,2.0000X2.0000*%
%ADD36R,1.2000X0.7000*%
%ADD37R,0.7000X1.2000*%
%ADD38R,0.4000X1.7500*%
%ADD39R,1.3750X2.5000*%
G04:AMPARAMS|DCode=40|XSize=1.8mm|YSize=1.6mm|CornerRadius=0.2mm|HoleSize=0mm|Usage=FLASHONLY|Rotation=0.000|XOffset=0mm|YOffset=0mm|HoleType=Round|Shape=RoundedRectangle|*
%AMROUNDEDRECTD40*
21,1,1.8000,1.2000,0,0,0.0*
21,1,1.4000,1.6000,0,0,0.0*
1,1,0.4000,0.7000,-0.6000*
1,1,0.4000,-0.7000,-0.6000*
1,1,0.4000,-0.7000,0.6000*
1,1,0.4000,0.7000,0.6000*
%
%ADD40ROUNDEDRECTD40*%
G04:AMPARAMS|DCode=41|XSize=1.01mm|YSize=1.47mm|CornerRadius=0.1263mm|HoleSize=0mm|Usage=FLASHONLY|Rotation=90.000|XOffset=0mm|YOffset=0mm|HoleType=Round|Shape=RoundedRectangle|*
%AMROUNDEDRECTD41*
21,1,1.0100,1.2175,0,0,90.0*
21,1,0.7575,1.4700,0,0,90.0*
1,1,0.2525,0.6088,0.3787*
1,1,0.2525,0.6088,-0.3787*
1,1,0.2525,-0.6088,-0.3787*
1,1,0.2525,-0.6088,0.3787*
%
%ADD41ROUNDEDRECTD41*%
G04:AMPARAMS|DCode=42|XSize=1.8mm|YSize=1.6mm|CornerRadius=0.2mm|HoleSize=0mm|Usage=FLASHONLY|Rotation=270.000|XOffset=0mm|YOffset=0mm|HoleType=Round|Shape=RoundedRectangle|*
%AMROUNDEDRECTD42*
21,1,1.8000,1.2000,0,0,270.0*
21,1,1.4000,1.6000,0,0,270.0*
1,1,0.4000,-0.6000,-0.7000*
1,1,0.4000,-0.6000,0.7000*
1,1,0.4000,0.6000,0.7000*
1,1,0.4000,0.6000,-0.7000*
%
%ADD42ROUNDEDRECTD42*%
G04:AMPARAMS|DCode=43|XSize=1.01mm|YSize=1.47mm|CornerRadius=0.1263mm|HoleSize=0mm|Usage=FLASHONLY|Rotation=180.000|XOffset=0mm|YOffset=0mm|HoleType=Round|Shape=RoundedRectangle|*
%AMROUNDEDRECTD43*
21,1,1.0100,1.2175,0,0,180.0*
21,1,0.7575,1.4700,0,0,180.0*
1,1,0.2525,-0.3787,0.6088*
1,1,0.2525,0.3787,0.6088*
1,1,0.2525,0.3787,-0.6088*
1,1,0.2525,-0.3787,-0.6088*
%
%ADD43ROUNDEDRECTD43*%
%ADD44R,0.2393X0.9660*%
G04:AMPARAMS|DCode=45|XSize=0.966mm|YSize=0.2393mm|CornerRadius=0.1196mm|HoleSize=0mm|Usage=FLASHONLY|Rotation=90.000|XOffset=0mm|YOffset=0mm|HoleType=Round|Shape=RoundedRectangle|*
%AMROUNDEDRECTD45*
21,1,0.9660,0.0000,0,0,90.0*
21,1,0.7267,0.2393,0,0,90.0*
1,1,0.2393,0.0000,0.3634*
1,1,0.2393,0.0000,-0.3634*
1,1,0.2393,0.0000,-0.3634*
1,1,0.2393,0.0000,0.3634*
%
%ADD45ROUNDEDRECTD45*%
G04:AMPARAMS|DCode=46|XSize=0.2393mm|YSize=0.966mm|CornerRadius=0.1196mm|HoleSize=0mm|Usage=FLASHONLY|Rotation=90.000|XOffset=0mm|YOffset=0mm|HoleType=Round|Shape=RoundedRectangle|*
%AMROUNDEDRECTD46*
21,1,0.2393,0.7267,0,0,90.0*
21,1,0.0000,0.9660,0,0,90.0*
1,1,0.2393,0.3634,0.0000*
1,1,0.2393,0.3634,0.0000*
1,1,0.2393,-0.3634,0.0000*
1,1,0.2393,-0.3634,0.0000*
%
%ADD46ROUNDEDRECTD46*%
%ADD47R,1.4000X0.9500*%
%ADD48R,1.4562X1.2549*%
%ADD49R,0.7000X0.6000*%
%ADD50R,0.7000X1.0000*%
%ADD51R,0.8500X0.4000*%
%ADD52R,0.9000X0.6500*%
G04:AMPARAMS|DCode=53|XSize=0.5mm|YSize=0.5mm|CornerRadius=0.0625mm|HoleSize=0mm|Usage=FLASHONLY|Rotation=0.000|XOffset=0mm|YOffset=0mm|HoleType=Round|Shape=RoundedRectangle|*
%AMROUNDEDRECTD53*
21,1,0.5000,0.3750,0,0,0.0*
21,1,0.3750,0.5000,0,0,0.0*
1,1,0.1250,0.1875,-0.1875*
1,1,0.1250,-0.1875,-0.1875*
1,1,0.1250,-0.1875,0.1875*
1,1,0.1250,0.1875,0.1875*
%
%ADD53ROUNDEDRECTD53*%
%ADD54R,0.4000X1.1000*%
G04:AMPARAMS|DCode=55|XSize=0.7mm|YSize=0.9mm|CornerRadius=0.0875mm|HoleSize=0mm|Usage=FLASHONLY|Rotation=270.000|XOffset=0mm|YOffset=0mm|HoleType=Round|Shape=RoundedRectangle|*
%AMROUNDEDRECTD55*
21,1,0.7000,0.7250,0,0,270.0*
21,1,0.5250,0.9000,0,0,270.0*
1,1,0.1750,-0.3625,-0.2625*
1,1,0.1750,-0.3625,0.2625*
1,1,0.1750,0.3625,0.2625*
1,1,0.1750,0.3625,-0.2625*
%
%ADD55ROUNDEDRECTD55*%
%ADD56R,0.8000X0.9000*%
%ADD57R,0.9500X1.4000*%
%ADD58R,1.4700X1.2000*%
%ADD59R,1.9000X1.1000*%
%ADD60R,1.9000X1.3500*%
%ADD61R,1.2000X1.0000*%
%ADD62R,1.5500X1.3500*%
%ADD63R,0.8500X1.1000*%
%ADD64R,0.7500X1.1000*%
%ADD65R,1.1700X1.8000*%
%ADD75R,1.6500X2.5500*%
%ADD89R,1.6800X1.6800*%
%ADD112C,1.0160*%
%ADD113C,1.8000*%
%ADD114R,1.8000X1.8000*%
%ADD115C,1.0058*%
%ADD116O,1.0000X1.8000*%
%ADD117O,1.0000X1.4600*%
%ADD118C,3.6000*%
%ADD119C,0.5080*%
G36*
X157733Y633330D02*
X157943Y633320D01*
X158153Y633290D01*
X158353Y633250D01*
X158563Y633200D01*
X158763Y633140D01*
X158953Y633070D01*
X159153Y632990D01*
X159343Y632900D01*
X159523Y632800D01*
X159703Y632690D01*
X159873Y632580D01*
X160043Y632450D01*
X160203Y632310D01*
X160353Y632170D01*
X160493Y632020D01*
X160633Y631860D01*
X160763Y631690D01*
X160873Y631520D01*
X160983Y631340D01*
X161083Y631160D01*
X161173Y630970D01*
X161253Y630770D01*
X161323Y630580D01*
X161383Y630380D01*
X161433Y630170D01*
X161473Y629970D01*
X161503Y629760D01*
X161513Y629550D01*
X161523Y629340D01*
Y616340D01*
X161513Y616130D01*
X161503Y615920D01*
X161473Y615710D01*
X161433Y615510D01*
X161383Y615300D01*
X161323Y615100D01*
X161253Y614910D01*
X161173Y614710D01*
X161083Y614520D01*
X160983Y614340D01*
X160873Y614160D01*
X160763Y613990D01*
X160633Y613820D01*
X160493Y613660D01*
X160353Y613510D01*
X160203Y613370D01*
X160043Y613230D01*
X159873Y613100D01*
X159703Y612990D01*
X159523Y612880D01*
X159343Y612780D01*
X159153Y612690D01*
X158953Y612610D01*
X158763Y612540D01*
X158563Y612480D01*
X158353Y612430D01*
X158153Y612390D01*
X157943Y612360D01*
X157733Y612350D01*
X157523Y612340D01*
X153023D01*
Y602520D01*
X134773D01*
Y615340D01*
X137773D01*
X138163Y615350D01*
X138553Y615380D01*
X138943Y615430D01*
X139333Y615500D01*
X139713Y615600D01*
X140093Y615710D01*
X140463Y615840D01*
X140823Y615990D01*
X141173Y616160D01*
X141523Y616340D01*
X141853Y616550D01*
X142183Y616770D01*
X142493Y617010D01*
X142793Y617270D01*
X143073Y617540D01*
X143343Y617820D01*
X143603Y618120D01*
X143843Y618430D01*
X144063Y618760D01*
X144273Y619090D01*
X144453Y619440D01*
X144623Y619790D01*
X144773Y620150D01*
X144903Y620520D01*
X145013Y620900D01*
X145113Y621280D01*
X145183Y621670D01*
X145233Y622060D01*
X145263Y622450D01*
X145273Y622840D01*
Y633340D01*
X157523D01*
X157733Y633330D01*
D02*
G37*
G36*
X82773Y622840D02*
X82783Y622450D01*
X82813Y622060D01*
X82863Y621670D01*
X82933Y621280D01*
X83033Y620900D01*
X83143Y620520D01*
X83273Y620150D01*
X83423Y619790D01*
X83593Y619440D01*
X83773Y619090D01*
X83983Y618760D01*
X84203Y618430D01*
X84443Y618120D01*
X84703Y617820D01*
X84973Y617540D01*
X85253Y617270D01*
X85553Y617010D01*
X85863Y616770D01*
X86193Y616550D01*
X86523Y616340D01*
X86873Y616160D01*
X87223Y615990D01*
X87583Y615840D01*
X87953Y615710D01*
X88333Y615600D01*
X88713Y615500D01*
X89103Y615430D01*
X89493Y615380D01*
X89883Y615350D01*
X90273Y615340D01*
X93273D01*
Y602520D01*
X75023D01*
Y612340D01*
X70523D01*
X70313Y612350D01*
X70103Y612360D01*
X69893Y612390D01*
X69693Y612430D01*
X69483Y612480D01*
X69283Y612540D01*
X69093Y612610D01*
X68893Y612690D01*
X68703Y612780D01*
X68523Y612880D01*
X68343Y612990D01*
X68173Y613100D01*
X68003Y613230D01*
X67843Y613370D01*
X67693Y613510D01*
X67553Y613660D01*
X67413Y613820D01*
X67283Y613990D01*
X67173Y614160D01*
X67063Y614340D01*
X66963Y614520D01*
X66873Y614710D01*
X66793Y614910D01*
X66723Y615100D01*
X66663Y615300D01*
X66613Y615510D01*
X66573Y615710D01*
X66543Y615920D01*
X66533Y616130D01*
X66523Y616340D01*
Y629340D01*
X66533Y629550D01*
X66543Y629760D01*
X66573Y629970D01*
X66613Y630170D01*
X66663Y630380D01*
X66723Y630580D01*
X66793Y630770D01*
X66873Y630970D01*
X66963Y631160D01*
X67063Y631340D01*
X67173Y631520D01*
X67283Y631690D01*
X67413Y631860D01*
X67553Y632020D01*
X67693Y632170D01*
X67843Y632310D01*
X68003Y632450D01*
X68173Y632580D01*
X68343Y632690D01*
X68523Y632800D01*
X68703Y632900D01*
X68893Y632990D01*
X69093Y633070D01*
X69283Y633140D01*
X69483Y633200D01*
X69693Y633250D01*
X69893Y633290D01*
X70103Y633320D01*
X70313Y633330D01*
X70523Y633340D01*
X82773D01*
Y622840D01*
D02*
G37*
G36*
X259080Y599237D02*
X258683Y598965D01*
X257413Y599635D01*
Y605820D01*
X247651D01*
Y596058D01*
X257413D01*
Y596263D01*
X258683Y596789D01*
X258706Y596766D01*
X262623Y592849D01*
Y545258D01*
X259748D01*
X259521Y545164D01*
X259277Y545188D01*
X258969Y544935D01*
X258600Y544782D01*
X258506Y544556D01*
X258316Y544400D01*
X258004Y543816D01*
X257047Y543577D01*
X255828Y543819D01*
X244078D01*
X242859Y543577D01*
X241825Y542886D01*
X241430Y542294D01*
X235993D01*
X235134Y543154D01*
X233649Y543769D01*
X232042D01*
X230557Y543154D01*
X229420Y542018D01*
X228805Y540533D01*
Y538926D01*
X229420Y537441D01*
X230557Y536304D01*
X232042Y535689D01*
X233649D01*
X235134Y536304D01*
X235993Y537164D01*
X240892D01*
Y531522D01*
X240657Y530269D01*
X239387Y529884D01*
X239078Y529631D01*
X238710Y529478D01*
X238616Y529252D01*
X238426Y529096D01*
X238387Y528699D01*
X238234Y528330D01*
Y516543D01*
X237011Y515970D01*
X230180Y522802D01*
X230396Y523886D01*
Y528839D01*
X230087Y530391D01*
X229208Y531706D01*
X227893Y532585D01*
X226341Y532894D01*
X220372D01*
X218821Y532585D01*
X217505Y531706D01*
X216626Y530391D01*
X216318Y528839D01*
Y523886D01*
X216626Y522335D01*
X217505Y521020D01*
X218821Y520141D01*
X220372Y519832D01*
X226341D01*
X226579Y519879D01*
X235406Y511052D01*
X235388Y510957D01*
Y505461D01*
X235583Y504479D01*
X236139Y503647D01*
X238044Y501742D01*
X238876Y501186D01*
X239858Y500990D01*
X258882D01*
X259313Y499990D01*
X258478Y499009D01*
X251627D01*
X250702Y498825D01*
X234085D01*
X230326Y502584D01*
X229507Y503131D01*
Y504520D01*
X229293Y505593D01*
X228686Y506503D01*
X227776Y507110D01*
X226703Y507324D01*
X218203D01*
X217130Y507110D01*
X216220Y506503D01*
X215613Y505593D01*
X215399Y504520D01*
Y497020D01*
X215613Y495947D01*
X216220Y495037D01*
X217130Y494430D01*
X218203Y494216D01*
X219888D01*
Y489557D01*
X219305Y488974D01*
X211667D01*
X210273Y490368D01*
X208483Y491401D01*
X206486Y491936D01*
X204419D01*
X202423Y491401D01*
X201723Y490997D01*
X200127Y491532D01*
X199899Y491760D01*
X199775Y492059D01*
X199477Y492182D01*
X199249Y492411D01*
X198926D01*
X198627Y492534D01*
X193191D01*
X192043Y492059D01*
X191567Y490910D01*
Y474095D01*
X192043Y472947D01*
X193191Y472471D01*
X212532D01*
X213680Y472947D01*
X217556Y476823D01*
X218032Y477971D01*
Y479078D01*
X224745D01*
X225271Y477808D01*
X223371Y475908D01*
X222815Y475076D01*
X222620Y474095D01*
Y468807D01*
X222008D01*
X220456Y468498D01*
X219141Y467619D01*
X218262Y466304D01*
X217953Y464753D01*
Y459799D01*
X218262Y458248D01*
X219141Y456933D01*
X220456Y456054D01*
X222008Y455745D01*
X227977D01*
X229528Y456054D01*
X230844Y456933D01*
X231723Y458248D01*
X232031Y459799D01*
Y464753D01*
X231723Y466304D01*
X230844Y467619D01*
X229528Y468498D01*
X227977Y468807D01*
X227750D01*
Y473032D01*
X233478Y478760D01*
X250515D01*
X250575Y478720D01*
X251627Y478511D01*
X258254D01*
X259068Y477312D01*
X258756Y476660D01*
X246138D01*
X245157Y476465D01*
X244325Y475908D01*
X240756Y472340D01*
X240200Y471508D01*
X240005Y470526D01*
Y453205D01*
X238542Y452914D01*
X237227Y452035D01*
X236348Y450720D01*
X236039Y449168D01*
Y448749D01*
X231560D01*
X230836Y450002D01*
X229375Y451464D01*
X227585Y452497D01*
X225588Y453032D01*
X223521D01*
X221525Y452497D01*
X219735Y451464D01*
X218273Y450002D01*
X217240Y448212D01*
X216705Y446216D01*
Y444149D01*
X217240Y442152D01*
X218273Y440362D01*
X219735Y438901D01*
X221525Y437867D01*
X223521Y437332D01*
X225588D01*
X227585Y437867D01*
X229375Y438901D01*
X230836Y440362D01*
X231870Y442152D01*
X232263Y443619D01*
X236039D01*
Y443199D01*
X236348Y441648D01*
X237227Y440332D01*
X238542Y439454D01*
X240093Y439145D01*
X245047D01*
X246598Y439454D01*
X247913Y440332D01*
X248792Y441648D01*
X249101Y443199D01*
Y449168D01*
X248792Y450720D01*
X247913Y452035D01*
X246598Y452914D01*
X245135Y453205D01*
Y469463D01*
X247201Y471529D01*
X259795D01*
Y467699D01*
X265058D01*
Y457133D01*
X261748D01*
X260529Y456891D01*
X259495Y456200D01*
X258805Y455166D01*
X258562Y453947D01*
Y444197D01*
X258805Y442978D01*
X259495Y441944D01*
X260529Y441253D01*
X261748Y441011D01*
X273498D01*
X274718Y441253D01*
X275751Y441944D01*
X276442Y442978D01*
X276684Y444197D01*
Y447235D01*
X280991D01*
X281851Y446375D01*
X283335Y445760D01*
X284943D01*
X286427Y446375D01*
X287564Y447512D01*
X288179Y448997D01*
Y450604D01*
X287564Y452089D01*
X286427Y453225D01*
X284943Y453840D01*
X283335D01*
X281851Y453225D01*
X280991Y452366D01*
X276684D01*
Y453947D01*
X276442Y455166D01*
X275751Y456200D01*
X274718Y456891D01*
X273498Y457133D01*
X270189D01*
Y467164D01*
X271439Y467856D01*
X272491Y467646D01*
X273543Y467856D01*
X273706Y467964D01*
X275164Y468068D01*
X276221Y467361D01*
Y474029D01*
X277491D01*
Y475299D01*
X280783D01*
Y476734D01*
X281028Y477723D01*
X282017Y477968D01*
X283452D01*
Y481260D01*
X285992D01*
Y477968D01*
X288355D01*
X289615Y478219D01*
X290683Y478932D01*
X291396Y480000D01*
X291647Y481260D01*
X291831Y481484D01*
X295557D01*
Y456382D01*
X295620Y456229D01*
X295588Y456067D01*
X295851Y455672D01*
X296033Y455234D01*
X296185Y455171D01*
X296277Y455033D01*
X297353Y454313D01*
X297818Y454220D01*
X298256Y454038D01*
X298409Y454102D01*
X298571Y454069D01*
X298966Y454332D01*
X299404Y454514D01*
X299450Y454559D01*
X301502D01*
Y433487D01*
X301978Y432339D01*
X303126Y431864D01*
X303954D01*
Y420032D01*
X303530Y419608D01*
X214715D01*
X214457Y419350D01*
X213264Y419953D01*
Y445458D01*
X188326D01*
X187642Y446142D01*
Y547203D01*
X225458D01*
X227983Y549729D01*
X227984D01*
X227984Y549729D01*
X227984Y549729D01*
X228109Y549730D01*
X228341Y619161D01*
X229441Y619615D01*
X259080D01*
Y599237D01*
D02*
G37*
G36*
X320040Y576739D02*
X264247D01*
Y592849D01*
X263771Y593997D01*
X262133Y595635D01*
X263398Y596900D01*
X260704Y599594D01*
Y602954D01*
X261974Y603121D01*
X261996Y603037D01*
X263379Y600643D01*
X265333Y598688D01*
X267728Y597306D01*
X270398Y596590D01*
X273163D01*
X275833Y597306D01*
X278228Y598688D01*
X280183Y600643D01*
X280391Y601003D01*
X281661Y600663D01*
Y596392D01*
X281856Y595410D01*
X282412Y594578D01*
X283244Y594022D01*
X284226Y593827D01*
X285208Y594022D01*
X286040Y594578D01*
X286596Y595410D01*
X286791Y596392D01*
Y600481D01*
X288061Y600821D01*
X288353Y600316D01*
X290407Y598262D01*
X292922Y596810D01*
X295728Y596058D01*
X295911D01*
Y607090D01*
Y618122D01*
X295728D01*
X292922Y617370D01*
X290407Y615918D01*
X288353Y613864D01*
X286900Y611348D01*
X286447Y609655D01*
X285953D01*
X284971Y609460D01*
X284139Y608904D01*
X283551Y608316D01*
X283023Y608381D01*
X282202Y608764D01*
X281565Y611143D01*
X280183Y613537D01*
X278228Y615492D01*
X275833Y616874D01*
X273163Y617590D01*
X270398D01*
X267728Y616874D01*
X265333Y615492D01*
X263379Y613537D01*
X261996Y611143D01*
X261974Y611059D01*
X260704Y611226D01*
Y619615D01*
X260800Y619760D01*
X320040D01*
Y576739D01*
D02*
G37*
G36*
X153023Y584740D02*
X133023D01*
Y599340D01*
X153023D01*
Y584740D01*
D02*
G37*
G36*
X95023D02*
X75023D01*
Y599340D01*
X95023D01*
Y584740D01*
D02*
G37*
G36*
X264812Y513083D02*
Y511207D01*
X264844Y511129D01*
X264820Y511048D01*
X264561Y510456D01*
X263543Y509664D01*
X262491Y509873D01*
X261439Y509664D01*
X260547Y509068D01*
X259951Y508176D01*
X259742Y507124D01*
Y506121D01*
X240921D01*
X240518Y506523D01*
Y510957D01*
X240323Y511939D01*
X240256Y512039D01*
X240084Y512904D01*
X239893Y513190D01*
X240487Y514460D01*
X263434D01*
X264812Y513083D01*
D02*
G37*
G36*
X354584Y574607D02*
Y493776D01*
X335662D01*
X335176Y494949D01*
X336958Y496732D01*
X337514Y497564D01*
X337709Y498545D01*
Y524224D01*
X338129D01*
X339680Y524533D01*
X340995Y525412D01*
X341874Y526727D01*
X342183Y528279D01*
Y533232D01*
X341874Y534783D01*
X340995Y536099D01*
X339680Y536977D01*
X338129Y537286D01*
X332160D01*
X330608Y536977D01*
X329293Y536099D01*
X328414Y534783D01*
X328105Y533232D01*
Y528279D01*
X328414Y526727D01*
X329293Y525412D01*
X330608Y524533D01*
X332160Y524224D01*
X332579D01*
Y499608D01*
X326861Y493890D01*
X291542D01*
X290864Y495160D01*
X290895Y495208D01*
X291105Y496260D01*
X290895Y497312D01*
X290299Y498204D01*
X289407Y498800D01*
X288355Y499009D01*
X281639D01*
X280786Y500038D01*
X281211Y500925D01*
X319579D01*
X320373Y500131D01*
X321858Y499516D01*
X323466D01*
X324950Y500131D01*
X326087Y501267D01*
X326702Y502752D01*
Y504359D01*
X326087Y505844D01*
X324950Y506981D01*
X323466Y507596D01*
X321858D01*
X320373Y506981D01*
X319449Y506056D01*
X280240D01*
Y507124D01*
X280031Y508176D01*
X279435Y509068D01*
X278543Y509664D01*
X277491Y509873D01*
X276439Y509664D01*
X276277Y509555D01*
X274819Y509451D01*
X273761Y510158D01*
Y503490D01*
X271221D01*
Y510158D01*
X270163Y509451D01*
X269819D01*
X268751Y510165D01*
X267491Y510416D01*
X267417Y510401D01*
X266436Y511207D01*
Y513755D01*
X264107Y516084D01*
X239858D01*
Y528330D01*
X241128Y528716D01*
X241441Y528246D01*
X242651Y527438D01*
X244078Y527154D01*
X248683D01*
Y535758D01*
X249953D01*
Y537028D01*
X259557D01*
Y540633D01*
X259273Y542060D01*
X259069Y542364D01*
X259748Y543634D01*
X262623D01*
X263771Y544110D01*
X264247Y545258D01*
Y575115D01*
X354374D01*
X354584Y574607D01*
D02*
G37*
G36*
X230212Y494193D02*
X230257Y494148D01*
X230508Y493595D01*
Y484827D01*
X226383Y480702D01*
X216408D01*
Y477971D01*
X212532Y474095D01*
X193191D01*
Y490910D01*
X198627D01*
X199153Y489641D01*
X198746Y489233D01*
X197642Y487322D01*
X197116Y485356D01*
X205453D01*
Y484086D01*
X206723D01*
Y475749D01*
X208688Y476275D01*
X210600Y477379D01*
X212160Y478940D01*
X213264Y480851D01*
X213835Y482983D01*
Y483843D01*
X222453D01*
X223435Y484039D01*
X224267Y484595D01*
X224823Y485427D01*
X225018Y486409D01*
Y493674D01*
X226703D01*
X227983Y493928D01*
X229069Y494654D01*
X230212Y494193D01*
D02*
G37*
G36*
X506475Y478486D02*
Y465452D01*
X506535Y465148D01*
X496468Y455080D01*
Y444465D01*
Y434829D01*
X498448D01*
X500509Y435239D01*
X502256Y436406D01*
X503174Y437780D01*
X504444Y437395D01*
Y432458D01*
X480581D01*
X479552Y433487D01*
Y461111D01*
X485621Y467180D01*
X486884Y466646D01*
X487052Y465799D01*
X487778Y464713D01*
X488863Y463988D01*
X490144Y463733D01*
X492624D01*
Y471329D01*
X493894D01*
Y472599D01*
X500990D01*
Y474798D01*
X505205Y479012D01*
X506475Y478486D01*
D02*
G37*
G36*
X331063Y489177D02*
Y456183D01*
X327192D01*
X326690Y457453D01*
X327623Y458849D01*
X328033Y460910D01*
Y462890D01*
X308762D01*
Y460910D01*
X309172Y458849D01*
X310106Y457453D01*
X309604Y456183D01*
X298777D01*
X298256Y455662D01*
X297181Y456382D01*
Y483108D01*
X291561D01*
X290981Y484378D01*
X291390Y484990D01*
X284722D01*
Y487530D01*
X291402D01*
X292095Y488760D01*
X327924D01*
X328905Y488955D01*
X329737Y489511D01*
X329890Y489663D01*
X331063Y489177D01*
D02*
G37*
G36*
X325682Y455586D02*
X325916Y455345D01*
X326044Y455034D01*
X326331Y454916D01*
X326546Y454693D01*
X326882Y454688D01*
X327192Y454559D01*
X330363D01*
Y451556D01*
X341742D01*
X344049Y449249D01*
Y433487D01*
X303126D01*
Y454559D01*
X309604D01*
X309914Y454687D01*
X310250Y454693D01*
X310465Y454916D01*
X310752Y455034D01*
X310880Y455345D01*
X311114Y455586D01*
X311335Y456146D01*
X313728Y456151D01*
X314148Y456067D01*
X322648D01*
X323156Y456168D01*
X325451Y456172D01*
X325682Y455586D01*
D02*
G37*
G36*
X607566Y314220D02*
X607251Y312739D01*
X606407Y312175D01*
X605528Y310860D01*
X605219Y309308D01*
Y304356D01*
X605528Y302804D01*
X606407Y301489D01*
X607722Y300610D01*
X609273Y300301D01*
X615243D01*
X616794Y300610D01*
X618109Y301489D01*
X618988Y302804D01*
X619279Y304267D01*
X625094D01*
Y294132D01*
X575564D01*
X575056Y294640D01*
Y315214D01*
X606412Y315374D01*
X607566Y314220D01*
D02*
G37*
G36*
X448371Y288687D02*
X447952D01*
X446400Y288378D01*
X445085Y287499D01*
X444206Y286184D01*
X443897Y284632D01*
Y279680D01*
X444206Y278128D01*
X445085Y276813D01*
X446400Y275934D01*
X447952Y275625D01*
X448371D01*
Y270002D01*
X414782D01*
Y293370D01*
X415098Y294132D01*
X448371D01*
Y288687D01*
D02*
G37*
G36*
X467360Y304546D02*
X467360Y304546D01*
X502920D01*
Y261620D01*
X487106D01*
Y268523D01*
X488568Y268814D01*
X489884Y269693D01*
X490763Y271008D01*
X491071Y272560D01*
Y278529D01*
X490763Y280081D01*
X489884Y281396D01*
X488568Y282275D01*
X487017Y282583D01*
X482064D01*
X480512Y282275D01*
X479197Y281396D01*
X478318Y280081D01*
X478009Y278529D01*
Y272560D01*
X478318Y271008D01*
X479197Y269693D01*
X480512Y268814D01*
X481975Y268523D01*
Y261620D01*
X464566D01*
Y268732D01*
X464566Y269240D01*
X465074Y269748D01*
X464820Y270002D01*
X463612Y270002D01*
X453501D01*
Y275625D01*
X453921D01*
X455472Y275934D01*
X456787Y276813D01*
X457666Y278128D01*
X457975Y279680D01*
Y284632D01*
X457666Y286184D01*
X456787Y287499D01*
X455472Y288378D01*
X453921Y288687D01*
X453501D01*
Y294132D01*
X464312D01*
Y304546D01*
X464566Y304800D01*
X467255D01*
X467360Y304546D01*
D02*
G37*
G36*
X314603Y217822D02*
X314984Y216549D01*
X314967Y216537D01*
X314158Y215328D01*
X313874Y213901D01*
Y211786D01*
X311950D01*
X311370Y212174D01*
X310388Y212369D01*
X309406Y212174D01*
X308574Y211618D01*
X308018Y210786D01*
X307823Y209804D01*
X308018Y208822D01*
X308574Y207990D01*
X309157Y207407D01*
X309989Y206851D01*
X310971Y206656D01*
X313689D01*
X313874Y206470D01*
Y202151D01*
X314158Y200724D01*
X314967Y199515D01*
X315153Y199390D01*
X314767Y198120D01*
X296672D01*
Y216672D01*
X297917Y217918D01*
X302448D01*
X314603Y217822D01*
D02*
G37*
G36*
X350215Y217541D02*
Y216620D01*
X350830Y215135D01*
X351967Y213999D01*
X353452Y213384D01*
X355059D01*
X356544Y213999D01*
X357403Y214859D01*
X365028D01*
Y198852D01*
X364725Y198120D01*
X348120D01*
X347846Y199390D01*
X348606Y199898D01*
X349297Y200932D01*
X349539Y202151D01*
Y205212D01*
X356003D01*
X356359Y204855D01*
X357844Y204240D01*
X359452D01*
X360937Y204855D01*
X362073Y205991D01*
X362688Y207476D01*
Y209084D01*
X362073Y210569D01*
X360937Y211705D01*
X359452Y212320D01*
X357844D01*
X356359Y211705D01*
X355223Y210569D01*
X354915Y209824D01*
X349539D01*
Y213901D01*
X349297Y215120D01*
X348606Y216154D01*
X348410Y216285D01*
X348800Y217552D01*
X350215Y217541D01*
D02*
G37*
G36*
X465328Y196962D02*
Y190572D01*
X464319Y190201D01*
X464058Y190151D01*
X462892Y190930D01*
X461465Y191214D01*
X457860D01*
Y181610D01*
X455320D01*
Y191214D01*
X451715D01*
X450288Y190930D01*
X449078Y190121D01*
X448270Y188912D01*
X447986Y187485D01*
Y184175D01*
X441882D01*
X440900Y183980D01*
X440320Y183592D01*
X437642D01*
X437579Y183829D01*
X436475Y185741D01*
X434915Y187301D01*
X433003Y188405D01*
X431038Y188931D01*
Y180594D01*
Y172257D01*
X433003Y172783D01*
X434915Y173887D01*
X436475Y175447D01*
X437579Y177359D01*
X437874Y178461D01*
X441299D01*
X442281Y178657D01*
X442861Y179045D01*
X447986D01*
Y175735D01*
X448270Y174308D01*
X449078Y173099D01*
X450288Y172290D01*
X451715Y172006D01*
X455518D01*
Y166624D01*
X415544D01*
Y190903D01*
X415798Y191008D01*
X445516D01*
Y196596D01*
X446532Y197612D01*
X464424Y197854D01*
X465328Y196962D01*
D02*
G37*
G36*
X79720Y367450D02*
X76421D01*
Y360688D01*
X81953D01*
Y358148D01*
X76421D01*
Y351386D01*
X79720D01*
Y233450D01*
X76421D01*
Y226688D01*
X81953D01*
Y224148D01*
X76421D01*
Y217386D01*
X79720D01*
Y179111D01*
X67233Y166624D01*
X3098D01*
Y179828D01*
X61508D01*
X61650Y179856D01*
X61795Y179844D01*
X62685Y179943D01*
X62963Y180032D01*
X63252Y180072D01*
X64098Y180368D01*
X64349Y180515D01*
X64622Y180619D01*
X65380Y181096D01*
X65592Y181296D01*
X65835Y181458D01*
X66468Y182091D01*
X66630Y182334D01*
X66830Y182546D01*
X67307Y183305D01*
X67411Y183577D01*
X67558Y183828D01*
X67854Y184674D01*
X67894Y184963D01*
X67983Y185240D01*
X68082Y186131D01*
X68069Y186275D01*
X68098Y186418D01*
X68098Y398418D01*
X68069Y398560D01*
X68082Y398705D01*
X67982Y399595D01*
X67894Y399873D01*
X67854Y400162D01*
X67558Y401008D01*
X67410Y401259D01*
X67307Y401531D01*
X66830Y402290D01*
X66630Y402502D01*
X66468Y402744D01*
X65835Y403378D01*
X65592Y403540D01*
X65381Y403740D01*
X64622Y404216D01*
X64349Y404320D01*
X64098Y404468D01*
X63252Y404763D01*
X62963Y404804D01*
X62685Y404892D01*
X61795Y404991D01*
X61650Y404979D01*
X61508Y405007D01*
X3098D01*
Y414049D01*
X79720D01*
Y367450D01*
D02*
G37*
G36*
X382524Y112392D02*
X378129Y107996D01*
X376554Y108183D01*
X376106Y108960D01*
X374644Y110422D01*
X372854Y111455D01*
X370858Y111990D01*
X368791D01*
X366794Y111455D01*
X365004Y110422D01*
X363542Y108960D01*
X363052Y108111D01*
X358203D01*
X357343Y108971D01*
X355859Y109586D01*
X354251D01*
X352767Y108971D01*
X351630Y107835D01*
X351427Y107344D01*
X344620D01*
Y114800D01*
X345222Y115201D01*
X346271Y116773D01*
X346640Y118626D01*
Y127126D01*
X346271Y128979D01*
X345222Y130551D01*
X343650Y131600D01*
X341797Y131969D01*
X335297D01*
X333444Y131600D01*
X331872Y130551D01*
X330823Y128979D01*
X330454Y127126D01*
Y118626D01*
X330823Y116773D01*
X331872Y115201D01*
X333444Y114152D01*
X335297Y113783D01*
X339490D01*
Y107344D01*
X321390D01*
Y136457D01*
X321686Y136754D01*
X320496Y137944D01*
X315460D01*
Y157980D01*
X318770Y161290D01*
X382524D01*
Y112392D01*
D02*
G37*
G36*
X496316Y197472D02*
Y154557D01*
X495698D01*
Y148739D01*
X495166D01*
Y145818D01*
X504183D01*
Y143278D01*
X495166D01*
Y140357D01*
X495698D01*
Y127935D01*
X496316D01*
Y115440D01*
X512499D01*
X513355Y114584D01*
Y103140D01*
X513013Y102887D01*
X512085Y102588D01*
X511492Y102984D01*
X510510Y103179D01*
X505158D01*
Y105489D01*
X504874Y106916D01*
X504066Y108125D01*
X502856Y108934D01*
X501429Y109218D01*
X496824D01*
Y100614D01*
X494284D01*
Y109218D01*
X489679D01*
X488950Y109073D01*
X487680Y109963D01*
Y114554D01*
X487678Y114552D01*
X471857D01*
Y172006D01*
X474320D01*
Y181610D01*
Y191214D01*
X471857D01*
Y196417D01*
X471314Y196960D01*
X471794Y198136D01*
X495414Y198365D01*
X496316Y197472D01*
D02*
G37*
G36*
X596138Y14750D02*
X595122Y13970D01*
X538988D01*
Y43942D01*
X578999D01*
Y41215D01*
X575564D01*
X573991Y40902D01*
X572657Y40011D01*
X571766Y38677D01*
X571453Y37104D01*
Y32669D01*
X565635D01*
X565249Y33056D01*
X564417Y33612D01*
X563435Y33807D01*
X557392D01*
X557213Y34477D01*
X556109Y36389D01*
X554549Y37949D01*
X552637Y39053D01*
X550672Y39579D01*
Y31242D01*
Y22905D01*
X552637Y23431D01*
X554549Y24535D01*
X556109Y26095D01*
X557213Y28007D01*
X557392Y28677D01*
X562372D01*
X562759Y28290D01*
X563591Y27734D01*
X564573Y27539D01*
X571453D01*
Y23104D01*
X571766Y21531D01*
X572657Y20197D01*
X573991Y19306D01*
X575564Y18993D01*
X580294D01*
Y30104D01*
X581564D01*
Y31374D01*
X591675D01*
Y37104D01*
X591362Y38677D01*
X590471Y40011D01*
X589137Y40902D01*
X587564Y41215D01*
X584129D01*
Y43942D01*
X596138D01*
Y14750D01*
D02*
G37*
%LPC*%
G36*
X257413Y618122D02*
X247651D01*
Y608360D01*
X257413D01*
Y618122D01*
D02*
G37*
G36*
X245111D02*
X235349D01*
Y608360D01*
X245111D01*
Y618122D01*
D02*
G37*
G36*
Y605820D02*
X235349D01*
Y596058D01*
X245111D01*
Y605820D01*
D02*
G37*
G36*
X255828Y563362D02*
X251223D01*
Y556028D01*
X259557D01*
Y559633D01*
X259273Y561060D01*
X258465Y562270D01*
X257255Y563078D01*
X255828Y563362D01*
D02*
G37*
G36*
X248683D02*
X244078D01*
X242651Y563078D01*
X241441Y562270D01*
X240633Y561060D01*
X240349Y559633D01*
Y556028D01*
X248683D01*
Y563362D01*
D02*
G37*
G36*
X259557Y553488D02*
X251223D01*
Y546154D01*
X255828D01*
X257255Y546438D01*
X258465Y547247D01*
X259273Y548456D01*
X259552Y549857D01*
X259557Y549883D01*
Y553488D01*
D02*
G37*
G36*
X248683D02*
X240349D01*
Y549883D01*
X240370Y549779D01*
X240633Y548456D01*
X241441Y547247D01*
X242651Y546438D01*
X244078Y546154D01*
X248683D01*
Y553488D01*
D02*
G37*
G36*
X209341Y533436D02*
X207627D01*
Y527633D01*
X213938D01*
Y528839D01*
X213588Y530599D01*
X212592Y532090D01*
X211100Y533086D01*
X209341Y533436D01*
D02*
G37*
G36*
X205087D02*
X203372D01*
X201613Y533086D01*
X200122Y532090D01*
X199125Y530599D01*
X198775Y528839D01*
Y527633D01*
X205087D01*
Y533436D01*
D02*
G37*
G36*
X213938Y525093D02*
X207627D01*
Y519290D01*
X209341D01*
X211100Y519640D01*
X212592Y520636D01*
X213588Y522127D01*
X213938Y523886D01*
Y525093D01*
D02*
G37*
G36*
X205087D02*
X198775D01*
Y523886D01*
X199125Y522127D01*
X200122Y520636D01*
X201613Y519640D01*
X203372Y519290D01*
X205087D01*
Y525093D01*
D02*
G37*
G36*
X209703Y507866D02*
X206723D01*
Y502040D01*
X213049D01*
Y504520D01*
X212794Y505801D01*
X212069Y506886D01*
X210984Y507612D01*
X209703Y507866D01*
D02*
G37*
G36*
X204183D02*
X201203D01*
X199922Y507612D01*
X198837Y506886D01*
X198111Y505801D01*
X197857Y504520D01*
Y502040D01*
X204183D01*
Y507866D01*
D02*
G37*
G36*
X213049Y499500D02*
X206723D01*
Y493674D01*
X209703D01*
X210984Y493928D01*
X212069Y494654D01*
X212794Y495739D01*
X213049Y497020D01*
Y499500D01*
D02*
G37*
G36*
X204183D02*
X197857D01*
Y497020D01*
X198111Y495739D01*
X198837Y494654D01*
X199922Y493928D01*
X201203Y493674D01*
X204183D01*
Y499500D01*
D02*
G37*
G36*
X280783Y472759D02*
X278761D01*
Y467361D01*
X279819Y468068D01*
X280532Y469136D01*
X280783Y470396D01*
Y472759D01*
D02*
G37*
G36*
X210977Y469349D02*
X209262D01*
Y463546D01*
X215574D01*
Y464753D01*
X215224Y466512D01*
X214227Y468003D01*
X212736Y468999D01*
X210977Y469349D01*
D02*
G37*
G36*
X206722D02*
X205008D01*
X203249Y468999D01*
X201758Y468003D01*
X200761Y466512D01*
X200411Y464753D01*
Y463546D01*
X206722D01*
Y469349D01*
D02*
G37*
G36*
X215574Y461006D02*
X209262D01*
Y455203D01*
X210977D01*
X212736Y455553D01*
X214227Y456549D01*
X215224Y458040D01*
X215574Y459799D01*
Y461006D01*
D02*
G37*
G36*
X206722D02*
X200411D01*
Y459799D01*
X200761Y458040D01*
X201758Y456549D01*
X203249Y455553D01*
X205008Y455203D01*
X206722D01*
Y461006D01*
D02*
G37*
G36*
X273498Y438676D02*
X268893D01*
Y431342D01*
X277227D01*
Y434947D01*
X276943Y436374D01*
X276135Y437584D01*
X274925Y438392D01*
X273498Y438676D01*
D02*
G37*
G36*
X266353D02*
X261748D01*
X260321Y438392D01*
X259112Y437584D01*
X258303Y436374D01*
X258020Y434947D01*
Y431342D01*
X266353D01*
Y438676D01*
D02*
G37*
G36*
X245047Y436765D02*
X243840D01*
Y430454D01*
X249643D01*
Y432168D01*
X249293Y433927D01*
X248297Y435419D01*
X246806Y436415D01*
X245047Y436765D01*
D02*
G37*
G36*
X241300D02*
X240093D01*
X238334Y436415D01*
X236843Y435419D01*
X235847Y433927D01*
X235497Y432168D01*
Y430454D01*
X241300D01*
Y436765D01*
D02*
G37*
G36*
X249643Y427914D02*
X243840D01*
Y421603D01*
X245047D01*
X246806Y421953D01*
X248297Y422949D01*
X249293Y424440D01*
X249643Y426199D01*
Y427914D01*
D02*
G37*
G36*
X241300D02*
X235497D01*
Y426199D01*
X235847Y424440D01*
X236843Y422949D01*
X238334Y421953D01*
X240093Y421603D01*
X241300D01*
Y427914D01*
D02*
G37*
G36*
X277227Y428802D02*
X268893D01*
Y421468D01*
X273498D01*
X274925Y421752D01*
X276135Y422561D01*
X276943Y423770D01*
X277227Y425197D01*
Y428802D01*
D02*
G37*
G36*
X266353D02*
X258020D01*
Y425197D01*
X258303Y423770D01*
X259112Y422561D01*
X260321Y421752D01*
X261748Y421468D01*
X266353D01*
Y428802D01*
D02*
G37*
G36*
X298633Y618122D02*
X298451D01*
Y608360D01*
X308213D01*
Y608542D01*
X307461Y611348D01*
X306008Y613864D01*
X303954Y615918D01*
X301439Y617370D01*
X298633Y618122D01*
D02*
G37*
G36*
X308213Y605820D02*
X298451D01*
Y596058D01*
X298633D01*
X301439Y596810D01*
X303954Y598262D01*
X306008Y600316D01*
X307461Y602832D01*
X308213Y605638D01*
Y605820D01*
D02*
G37*
G36*
X279941Y564810D02*
X277424D01*
Y556634D01*
X283300D01*
Y561451D01*
X283045Y562737D01*
X282316Y563827D01*
X281227Y564555D01*
X279941Y564810D01*
D02*
G37*
G36*
X274884D02*
X272366D01*
X271081Y564555D01*
X269991Y563827D01*
X269263Y562737D01*
X269007Y561451D01*
Y556634D01*
X274884D01*
Y564810D01*
D02*
G37*
G36*
X338382Y562791D02*
X332413D01*
X330862Y562482D01*
X329547Y561603D01*
X328668Y560288D01*
X328359Y558736D01*
Y553783D01*
X328668Y552232D01*
X329547Y550917D01*
X330862Y550038D01*
X332413Y549729D01*
X338382D01*
X339934Y550038D01*
X341249Y550917D01*
X342128Y552232D01*
X342335Y553272D01*
X342914Y553501D01*
X343673Y553582D01*
X344652Y552603D01*
X346137Y551988D01*
X347745D01*
X349230Y552603D01*
X350366Y553740D01*
X350981Y555224D01*
Y556832D01*
X350366Y558316D01*
X349230Y559453D01*
X347745Y560068D01*
X346137D01*
X344652Y559453D01*
X343766Y558566D01*
X342437D01*
Y558736D01*
X342128Y560288D01*
X341249Y561603D01*
X339934Y562482D01*
X338382Y562791D01*
D02*
G37*
G36*
X299541Y564268D02*
X291966D01*
X290888Y564054D01*
X289975Y563443D01*
X289364Y562529D01*
X289150Y561451D01*
Y549277D01*
X289364Y548199D01*
X289975Y547285D01*
X290888Y546674D01*
X291966Y546460D01*
X299541D01*
X300619Y546674D01*
X301533Y547285D01*
X302143Y548199D01*
X302358Y549277D01*
Y552799D01*
X311555D01*
X311668Y552232D01*
X312547Y550917D01*
X313862Y550038D01*
X315413Y549729D01*
X321382D01*
X322934Y550038D01*
X324249Y550917D01*
X325128Y552232D01*
X325437Y553783D01*
Y558736D01*
X325128Y560288D01*
X324249Y561603D01*
X322934Y562482D01*
X321382Y562791D01*
X315413D01*
X313862Y562482D01*
X312547Y561603D01*
X311668Y560288D01*
X311359Y558736D01*
Y557929D01*
X302358D01*
Y561451D01*
X302143Y562529D01*
X301533Y563443D01*
X300619Y564054D01*
X299541Y564268D01*
D02*
G37*
G36*
X283300Y554094D02*
X277424D01*
Y545918D01*
X279941D01*
X281227Y546173D01*
X282316Y546901D01*
X283045Y547991D01*
X283300Y549277D01*
Y554094D01*
D02*
G37*
G36*
X274884D02*
X269007D01*
Y549277D01*
X269263Y547991D01*
X269991Y546901D01*
X271081Y546173D01*
X272366Y545918D01*
X274884D01*
Y554094D01*
D02*
G37*
G36*
X279758Y540202D02*
X277241D01*
Y532025D01*
X283118D01*
Y536843D01*
X282862Y538128D01*
X282134Y539218D01*
X281044Y539946D01*
X279758Y540202D01*
D02*
G37*
G36*
X274701D02*
X272183D01*
X270898Y539946D01*
X269808Y539218D01*
X269080Y538128D01*
X268825Y536843D01*
Y532025D01*
X274701D01*
Y540202D01*
D02*
G37*
G36*
X259557Y534488D02*
X251223D01*
Y527154D01*
X255828D01*
X257255Y527438D01*
X258465Y528246D01*
X259273Y529456D01*
X259557Y530883D01*
Y534488D01*
D02*
G37*
G36*
X299359Y539659D02*
X291784D01*
X290706Y539445D01*
X289792Y538834D01*
X289181Y537920D01*
X288967Y536843D01*
Y524668D01*
X289181Y523590D01*
X289792Y522676D01*
X290706Y522065D01*
X291784Y521851D01*
X299359D01*
X300436Y522065D01*
X301350Y522676D01*
X301961Y523590D01*
X302175Y524668D01*
Y528190D01*
X311123D01*
X311414Y526727D01*
X312293Y525412D01*
X313608Y524533D01*
X315159Y524224D01*
X321129D01*
X322680Y524533D01*
X323995Y525412D01*
X324874Y526727D01*
X325183Y528279D01*
Y533232D01*
X324874Y534783D01*
X323995Y536099D01*
X322680Y536977D01*
X321129Y537286D01*
X315159D01*
X313608Y536977D01*
X312293Y536099D01*
X311414Y534783D01*
X311123Y533320D01*
X302175D01*
Y536843D01*
X301961Y537920D01*
X301350Y538834D01*
X300436Y539445D01*
X299359Y539659D01*
D02*
G37*
G36*
X283118Y529485D02*
X277241D01*
Y521309D01*
X279758D01*
X281044Y521564D01*
X282134Y522292D01*
X282862Y523382D01*
X283118Y524668D01*
Y529485D01*
D02*
G37*
G36*
X274701D02*
X268825D01*
Y524668D01*
X269080Y523382D01*
X269808Y522292D01*
X270898Y521564D01*
X272183Y521309D01*
X274701D01*
Y529485D01*
D02*
G37*
G36*
X204183Y482816D02*
X197116D01*
X197642Y480851D01*
X198746Y478940D01*
X200306Y477379D01*
X202218Y476275D01*
X204183Y475749D01*
Y482816D01*
D02*
G37*
G36*
X500990Y470059D02*
X495164D01*
Y463733D01*
X497644D01*
X498925Y463988D01*
X500010Y464713D01*
X500736Y465799D01*
X500990Y467079D01*
Y470059D01*
D02*
G37*
G36*
X493928Y454100D02*
X491948D01*
X489887Y453690D01*
X488140Y452523D01*
X486973Y450775D01*
X486563Y448714D01*
Y445735D01*
X493928D01*
Y454100D01*
D02*
G37*
G36*
Y443195D02*
X486563D01*
Y440215D01*
X486973Y438154D01*
X488140Y436406D01*
X489887Y435239D01*
X491948Y434829D01*
X493928D01*
Y443195D01*
D02*
G37*
G36*
X322648Y472795D02*
X319668D01*
Y465430D01*
X328033D01*
Y467410D01*
X327623Y469471D01*
X326456Y471218D01*
X324709Y472385D01*
X322648Y472795D01*
D02*
G37*
G36*
X317128D02*
X314148D01*
X312087Y472385D01*
X310340Y471218D01*
X309172Y469471D01*
X308762Y467410D01*
Y465430D01*
X317128D01*
Y472795D01*
D02*
G37*
G36*
X322648Y453796D02*
X319668D01*
Y446430D01*
X328033D01*
Y448410D01*
X327623Y450471D01*
X326456Y452218D01*
X324709Y453386D01*
X322648Y453796D01*
D02*
G37*
G36*
X317128D02*
X314148D01*
X312087Y453386D01*
X310340Y452218D01*
X309172Y450471D01*
X308762Y448410D01*
Y446430D01*
X317128D01*
Y453796D01*
D02*
G37*
G36*
X328033Y443890D02*
X319668D01*
Y436525D01*
X322648D01*
X324709Y436935D01*
X326456Y438102D01*
X327623Y439849D01*
X328033Y441910D01*
Y443890D01*
D02*
G37*
G36*
X317128D02*
X308762D01*
Y441910D01*
X309172Y439849D01*
X310340Y438102D01*
X312087Y436935D01*
X314148Y436525D01*
X317128D01*
Y443890D01*
D02*
G37*
G36*
X598242Y313905D02*
X596528D01*
Y308102D01*
X602839D01*
Y309308D01*
X602489Y311068D01*
X601493Y312559D01*
X600002Y313555D01*
X598242Y313905D01*
D02*
G37*
G36*
X593988D02*
X592273D01*
X590514Y313555D01*
X589023Y312559D01*
X588027Y311068D01*
X587677Y309308D01*
Y308102D01*
X593988D01*
Y313905D01*
D02*
G37*
G36*
X602839Y305562D02*
X596528D01*
Y299759D01*
X598242D01*
X600002Y300109D01*
X601493Y301105D01*
X602489Y302596D01*
X602839Y304356D01*
Y305562D01*
D02*
G37*
G36*
X593988D02*
X587677D01*
Y304356D01*
X588027Y302596D01*
X589023Y301105D01*
X590514Y300109D01*
X592273Y299759D01*
X593988D01*
Y305562D01*
D02*
G37*
G36*
X436921Y289229D02*
X435206D01*
Y283426D01*
X441517D01*
Y284632D01*
X441167Y286392D01*
X440171Y287883D01*
X438680Y288879D01*
X436921Y289229D01*
D02*
G37*
G36*
X432666D02*
X430951D01*
X429192Y288879D01*
X427701Y287883D01*
X426705Y286392D01*
X426355Y284632D01*
Y283426D01*
X432666D01*
Y289229D01*
D02*
G37*
G36*
X441517Y280886D02*
X435206D01*
Y275083D01*
X436921D01*
X438680Y275433D01*
X440171Y276429D01*
X441167Y277920D01*
X441517Y279680D01*
Y280886D01*
D02*
G37*
G36*
X432666D02*
X426355D01*
Y279680D01*
X426705Y277920D01*
X427701Y276429D01*
X429192Y275433D01*
X430951Y275083D01*
X432666D01*
Y280886D01*
D02*
G37*
G36*
X487017Y300126D02*
X485810D01*
Y293814D01*
X491614D01*
Y295529D01*
X491264Y297288D01*
X490267Y298779D01*
X488776Y299776D01*
X487017Y300126D01*
D02*
G37*
G36*
X483270D02*
X482064D01*
X480305Y299776D01*
X478813Y298779D01*
X477817Y297288D01*
X477467Y295529D01*
Y293814D01*
X483270D01*
Y300126D01*
D02*
G37*
G36*
X491614Y291274D02*
X485810D01*
Y284963D01*
X487017D01*
X488776Y285313D01*
X490267Y286310D01*
X491264Y287801D01*
X491614Y289560D01*
Y291274D01*
D02*
G37*
G36*
X483270D02*
X477467D01*
Y289560D01*
X477817Y287801D01*
X478813Y286310D01*
X480305Y285313D01*
X482064Y284963D01*
X483270D01*
Y291274D01*
D02*
G37*
G36*
X428498Y188931D02*
X426533Y188405D01*
X424621Y187301D01*
X423061Y185741D01*
X421957Y183829D01*
X421431Y181864D01*
X428498D01*
Y188931D01*
D02*
G37*
G36*
Y179324D02*
X421431D01*
X421957Y177359D01*
X423061Y175447D01*
X424621Y173887D01*
X426533Y172783D01*
X428498Y172257D01*
Y179324D01*
D02*
G37*
G36*
X359918Y158197D02*
Y151130D01*
X366985D01*
X366459Y153095D01*
X365355Y155007D01*
X363795Y156567D01*
X361883Y157671D01*
X359918Y158197D01*
D02*
G37*
G36*
X335093Y159095D02*
X332113D01*
X330052Y158686D01*
X328305Y157518D01*
X327137Y155771D01*
X326728Y153710D01*
Y152903D01*
X321686D01*
X320704Y152708D01*
X319872Y152152D01*
X319750Y152030D01*
X319194Y151198D01*
X318999Y150216D01*
X319194Y149234D01*
X319750Y148402D01*
X320582Y147846D01*
X321564Y147651D01*
X322177Y147773D01*
X326728D01*
Y147210D01*
X327137Y145149D01*
X328305Y143402D01*
X330052Y142234D01*
X332113Y141825D01*
X335093D01*
Y150460D01*
Y159095D01*
D02*
G37*
G36*
X366985Y148590D02*
X359918D01*
Y141523D01*
X361883Y142049D01*
X363795Y143153D01*
X365355Y144713D01*
X366459Y146625D01*
X366985Y148590D01*
D02*
G37*
G36*
X340613Y159095D02*
X337633D01*
Y150460D01*
Y141825D01*
X340613D01*
X342674Y142234D01*
X344421Y143402D01*
X345588Y145149D01*
X345998Y147210D01*
Y147895D01*
X350497D01*
X350837Y146625D01*
X351941Y144713D01*
X353501Y143153D01*
X355413Y142049D01*
X357378Y141523D01*
Y149860D01*
Y158197D01*
X355413Y157671D01*
X353501Y156567D01*
X351941Y155007D01*
X350837Y153095D01*
X350818Y153025D01*
X345998D01*
Y153710D01*
X345588Y155771D01*
X344421Y157518D01*
X342674Y158686D01*
X340613Y159095D01*
D02*
G37*
G36*
X356277Y132512D02*
X354297D01*
X352236Y132101D01*
X350489Y130934D01*
X349322Y129187D01*
X348912Y127126D01*
Y124146D01*
X356277D01*
Y132512D01*
D02*
G37*
G36*
X360797D02*
X358817D01*
Y122876D01*
Y113240D01*
X360797D01*
X362858Y113651D01*
X364605Y114818D01*
X365773Y116565D01*
X366183Y118626D01*
Y120311D01*
X371768D01*
X371970Y120176D01*
X372952Y119981D01*
X373933Y120176D01*
X374766Y120732D01*
X375322Y121564D01*
X375517Y122546D01*
X375322Y123528D01*
X374766Y124360D01*
X374436Y124690D01*
X373603Y125246D01*
X372622Y125441D01*
X366183D01*
Y127126D01*
X365773Y129187D01*
X364605Y130934D01*
X362858Y132101D01*
X360797Y132512D01*
D02*
G37*
G36*
X356277Y121606D02*
X348912D01*
Y118626D01*
X349322Y116565D01*
X350489Y114818D01*
X352236Y113651D01*
X354297Y113240D01*
X356277D01*
Y121606D01*
D02*
G37*
G36*
X480465Y191214D02*
X476860D01*
Y181610D01*
Y172006D01*
X480465D01*
X481892Y172290D01*
X483102Y173099D01*
X483910Y174308D01*
X484194Y175735D01*
Y178034D01*
X488188D01*
X489071Y178209D01*
X489310Y178369D01*
X491572D01*
X492454Y178545D01*
X493202Y179045D01*
X493883Y179725D01*
X494383Y180473D01*
X494558Y181356D01*
X494383Y182239D01*
X493883Y182987D01*
X493135Y183487D01*
X492252Y183662D01*
X491369Y183487D01*
X490621Y182987D01*
X490616Y182982D01*
X488524D01*
X487641Y182806D01*
X487402Y182646D01*
X484194D01*
Y187485D01*
X483910Y188912D01*
X483102Y190121D01*
X481892Y190930D01*
X480465Y191214D01*
D02*
G37*
G36*
X548132Y39579D02*
X546167Y39053D01*
X544255Y37949D01*
X542695Y36389D01*
X541591Y34477D01*
X541065Y32512D01*
X548132D01*
Y39579D01*
D02*
G37*
G36*
Y29972D02*
X541065D01*
X541591Y28007D01*
X542695Y26095D01*
X544255Y24535D01*
X546167Y23431D01*
X548132Y22905D01*
Y29972D01*
D02*
G37*
G36*
X591675Y28834D02*
X582834D01*
Y18993D01*
X587564D01*
X589137Y19306D01*
X590471Y20197D01*
X591362Y21531D01*
X591675Y23104D01*
Y28834D01*
D02*
G37*
%LPD*%
D10*
X101586Y62230D02*
X111506D01*
X102362Y46228D02*
Y61454D01*
X101586Y62230D02*
X102362Y61454D01*
X625348Y398529D02*
Y409194D01*
Y398529D02*
X625605Y398272D01*
X573278D02*
X584105D01*
X627634Y351126D02*
X627732Y351028D01*
X627634Y351126D02*
Y360934D01*
X585216Y352044D02*
X586232Y351028D01*
X585216Y352044D02*
Y360934D01*
X86671Y446589D02*
Y463099D01*
X79756Y439674D02*
X86671Y446589D01*
X83647Y453217D02*
Y465065D01*
X79756Y449326D02*
X83647Y453217D01*
X86671Y463099D02*
X88754Y465182D01*
X94811D01*
X102216D01*
X90567Y459439D02*
X91810Y460682D01*
X90567Y435840D02*
Y459439D01*
X91460Y434947D02*
X99297D01*
X91810Y460682D02*
X94811D01*
X90567Y435840D02*
X91460Y434947D01*
X83647Y465065D02*
X86858Y468276D01*
X74213Y429768D02*
Y454220D01*
X152219Y478863D02*
X153670Y480314D01*
X152219Y471755D02*
Y478863D01*
X488188Y180340D02*
X488524Y180676D01*
X491572D02*
X492252Y181356D01*
X488524Y180676D02*
X491572D01*
X476860Y180340D02*
X488188D01*
X475590Y181610D02*
X476860Y180340D01*
X512572Y18288D02*
Y32766D01*
X513080Y33274D01*
X423164Y47276D02*
X423508Y46932D01*
X423164Y47276D02*
Y64516D01*
X141224Y460682D02*
X154446D01*
X123121D02*
X141224D01*
X627732Y329528D02*
X630320D01*
X645334Y344542D01*
X625605Y376772D02*
Y381963D01*
X644826Y401184D01*
X154446Y460682D02*
X160249Y454879D01*
X148336Y467872D02*
X152219Y471755D01*
X123121Y483182D02*
Y485190D01*
X111766Y496545D02*
X123121Y485190D01*
X94811Y483182D02*
Y484162D01*
X107194Y496545D01*
X123121Y474182D02*
X142026D01*
X127411Y469682D02*
X128817Y468276D01*
X136273D01*
X123121Y469682D02*
X127411D01*
X94774Y474145D02*
X94811Y474182D01*
X89206Y468276D02*
X90612Y469682D01*
X89608Y474145D02*
X94774D01*
X88239Y472776D02*
X89608Y474145D01*
X86858Y468276D02*
X89206D01*
X86363Y472776D02*
X88239D01*
X90612Y469682D02*
X94811D01*
X94774Y478645D02*
X94811Y478682D01*
X89113Y478645D02*
X94774D01*
X87744Y477276D02*
X89113Y478645D01*
X86060Y477276D02*
X87744D01*
X340669Y207518D02*
X356924D01*
X357686Y208280D01*
X358648D01*
X74213Y454220D02*
Y460626D01*
X73524Y453531D02*
X74213Y454220D01*
X67118Y453531D02*
X73524D01*
X19812Y433687D02*
X21002Y432497D01*
X19812Y433687D02*
Y478770D01*
X21002Y432497D02*
X30598D01*
X19812Y478770D02*
X21002Y479961D01*
X35052D01*
X461263Y608956D02*
Y624863D01*
X366268Y624332D02*
X373194D01*
X373913Y623613D01*
X381663D01*
X67118Y443992D02*
Y453531D01*
X86896Y97472D02*
X100453D01*
X614680Y446892D02*
Y472599D01*
X420898Y350186D02*
X462398D01*
X205852Y525858D02*
X206357Y526363D01*
X193191Y525858D02*
X205852D01*
X207776Y449072D02*
X207992Y449289D01*
Y462276D01*
X193191Y500601D02*
X193360Y500770D01*
X205453D01*
X230508Y429768D02*
X231092Y429184D01*
X242570D01*
X283978Y474772D02*
X284722Y475516D01*
X283235Y474029D02*
X283978Y474772D01*
X291966Y449625D02*
Y472769D01*
X290706Y474029D02*
X291966Y472769D01*
X284722Y474029D02*
X290706D01*
X283978Y474772D02*
X284722Y474029D01*
X277491D02*
X283235D01*
X284722Y475516D02*
Y481260D01*
X255261Y488760D02*
Y491260D01*
Y486260D02*
Y488760D01*
X269991D01*
X277491Y481260D01*
X284722D01*
X269991Y488760D02*
X277491Y496260D01*
X284722D01*
X237698Y512021D02*
X237953D01*
X223357Y526363D02*
X237698Y512021D01*
X237953Y510957D02*
Y512021D01*
X368742Y526363D02*
X379913D01*
X368237Y525858D02*
X368742Y526363D01*
X335398Y556260D02*
X346709D01*
X346941Y556028D01*
X420624Y350460D02*
X420898Y350186D01*
X420624Y350460D02*
Y361141D01*
X364418Y364608D02*
X379180D01*
X608671Y57764D02*
X609564Y56871D01*
X595564Y57764D02*
X608671D01*
X609564Y30104D02*
Y56871D01*
X100453Y97472D02*
X102896D01*
X100453Y63363D02*
X101586Y62230D01*
X100453Y63363D02*
Y97472D01*
X102896D02*
X110896Y105472D01*
X69023Y496325D02*
X74213Y491135D01*
X36620Y496325D02*
X69023D01*
X35052Y494757D02*
X36620Y496325D01*
X35052Y479961D02*
Y494757D01*
X74213Y460626D02*
X86363Y472776D01*
X36242Y443992D02*
X67118D01*
X35052Y445182D02*
Y460961D01*
Y445182D02*
X36242Y443992D01*
X74213Y478837D02*
Y491135D01*
X84500Y478837D02*
X86060Y477276D01*
X74213Y478837D02*
X84500D01*
X106004Y497735D02*
X107194Y496545D01*
X99829Y500770D02*
X102864Y497735D01*
X112956D02*
X116096D01*
X119131Y500770D01*
X102864Y497735D02*
X106004D01*
X111766Y496545D02*
X112956Y497735D01*
D13*
X534583Y101194D02*
X543814D01*
X504183Y131594D02*
X534583Y101194D01*
X472263Y609020D02*
Y624863D01*
D18*
X88586Y62230D02*
X88646Y62290D01*
Y71628D01*
X86896Y73378D02*
X88646Y71628D01*
X86896Y73378D02*
Y81272D01*
X102216Y465182D02*
X108966Y471932D01*
X55822Y96774D02*
X61976D01*
X64520Y99318D01*
Y105472D01*
X385590Y68054D02*
X385826Y67818D01*
X385590Y68054D02*
Y77614D01*
X310429Y76096D02*
X311341Y75184D01*
X299720Y76096D02*
X310429D01*
X311341Y75184D02*
X312166D01*
X438240Y118364D02*
X439430Y119554D01*
X426154Y118364D02*
X438240D01*
X439430Y119554D02*
Y143358D01*
X440621Y144548D01*
X422882Y115092D02*
X426154Y118364D01*
X440621Y144548D02*
X458971D01*
X355055Y105546D02*
X368418D01*
X355055Y94620D02*
Y105546D01*
X310430Y54398D02*
X321564D01*
X307594Y51562D02*
X310430Y54398D01*
X586232Y329528D02*
X627732D01*
X584105Y376772D02*
X625605D01*
X125476Y16256D02*
X125766Y15966D01*
X281477D01*
X252984Y101110D02*
X267462D01*
X247824D02*
X252984D01*
Y125072D01*
X265938Y138026D01*
X552038Y81534D02*
X560578D01*
X551378Y82194D02*
X552038Y81534D01*
X543814Y82194D02*
X551378D01*
X450433Y227167D02*
X484540D01*
X285366Y194540D02*
X417806D01*
X450433Y227167D01*
X510510Y100614D02*
X510540Y100584D01*
X495554Y100614D02*
X510510D01*
X436675Y181027D02*
X441299D01*
X441882Y181610D01*
X436242Y180594D02*
X436675Y181027D01*
X429768Y180594D02*
X436242D01*
X511377Y81459D02*
X516333D01*
X510794Y82042D02*
X511377Y81459D01*
X516333D02*
X516512Y81280D01*
X522986D01*
X510366Y81614D02*
X510794Y82042D01*
X495554Y81614D02*
X510366D01*
X322326Y7874D02*
X322707Y7493D01*
X488061D01*
X488442Y7112D01*
X461455Y16002D02*
X462471Y14986D01*
X313944Y16002D02*
X461455D01*
X462471Y14986D02*
X463296D01*
X462788Y15494D02*
Y32766D01*
X462280Y33274D02*
X462788Y32766D01*
X488061Y7493D02*
Y32893D01*
X487680Y33274D02*
X488061Y32893D01*
X197948Y8382D02*
X198202Y8128D01*
X322072D01*
X322326Y7874D01*
X261953Y217953D02*
X285366Y194540D01*
X265137Y188468D02*
X312166D01*
X249953Y203652D02*
X265137Y188468D01*
X312166D02*
X312674Y188976D01*
X456590Y181610D02*
X458083Y180117D01*
X441882Y181610D02*
X456590D01*
X504183Y150898D02*
X534252D01*
X504183Y144548D02*
X521484D01*
X458083Y150010D02*
Y180117D01*
X521484Y144548D02*
X521970Y145034D01*
X495306Y81862D02*
X495554Y81614D01*
X458971Y111138D02*
X469247Y100862D01*
Y81862D02*
X495306D01*
X494410Y101758D02*
X495554Y100614D01*
X468809Y81424D02*
X469247Y81862D01*
X451986Y81424D02*
X468809D01*
X439882Y103378D02*
X439922D01*
X458971Y111138D02*
Y131594D01*
X422882Y103378D02*
Y115092D01*
X443889Y136754D02*
X445079Y137944D01*
X458971D01*
X443889Y107344D02*
Y136754D01*
X439922Y103378D02*
X443889Y107344D01*
X511168Y137944D02*
X526536Y122576D01*
X504183Y137944D02*
X511168D01*
X526536Y122576D02*
X542429D01*
X534252Y150898D02*
X542429Y142721D01*
Y139576D02*
Y142721D01*
X640634Y151892D02*
X659130D01*
X640170Y152356D02*
X640634Y151892D01*
X549402Y31242D02*
X562610D01*
X368418Y105546D02*
X369824Y104140D01*
X385590Y77614D02*
X401430D01*
X266599Y79238D02*
X266731Y79370D01*
X280030D01*
X280162Y79502D01*
X267462Y118110D02*
X267589Y117983D01*
X280035D02*
X280162Y117856D01*
X267589Y117983D02*
X280035D01*
X358048Y150460D02*
X358648Y149860D01*
X336363Y150460D02*
X358048D01*
X253673Y22982D02*
X261892D01*
X265176Y26266D01*
X299362Y27432D02*
X299720Y27790D01*
X287528Y27432D02*
X299362D01*
X274724Y39266D02*
X275082Y39624D01*
X265176Y39266D02*
X274724D01*
X305966Y40790D02*
X307594Y42418D01*
X299720Y40790D02*
X305966D01*
X307594Y42418D02*
Y51562D01*
X281513Y16002D02*
X313944D01*
X314584Y63096D02*
X314706Y62974D01*
X299720Y63096D02*
X314584D01*
X281477Y15966D02*
X281513Y16002D01*
X232704Y112138D02*
X247411D01*
X231817Y111250D02*
X232704Y112138D01*
X278996Y138026D02*
X279146Y138176D01*
X265938Y138026D02*
X278996D01*
X282186Y62238D02*
X283718Y60706D01*
X266599Y62238D02*
X282186D01*
X229867Y144834D02*
Y164335D01*
X230886Y165354D01*
X55822Y96774D02*
Y122116D01*
X56642Y122936D01*
X247411Y144834D02*
X253603Y151026D01*
X265938D01*
X246634Y99920D02*
X247824Y101110D01*
X246634Y95518D02*
Y99920D01*
X240167Y89051D02*
X246634Y95518D01*
X72898Y62230D02*
X88586D01*
X72644Y61976D02*
X72898Y62230D01*
X310971Y209221D02*
X314751D01*
X310388Y209804D02*
X310971Y209221D01*
X314751D02*
X315946Y208026D01*
X322478D01*
X141853Y440332D02*
Y460053D01*
X141224Y460682D02*
X141853Y460053D01*
X142026Y474182D02*
X148336Y467872D01*
X157163Y390652D02*
Y406699D01*
X243463Y183257D02*
X355055D01*
X225953Y200767D02*
X243463Y183257D01*
X324363Y340378D02*
X326863D01*
X329347Y342862D01*
Y344504D01*
X330537Y345694D01*
X362504D01*
X364418Y347608D01*
X389808D01*
X326863Y328378D02*
X329347Y325894D01*
Y324532D02*
X330537Y323342D01*
X363982D01*
X364744Y324104D01*
X329347Y324532D02*
Y325894D01*
X324363Y328378D02*
X326863D01*
X364744Y324104D02*
X388312D01*
X325848Y291084D02*
X382270D01*
X407750Y287552D02*
X408940Y286362D01*
X361212Y287552D02*
X407750D01*
X382270Y291084D02*
X388366Y297180D01*
X408940Y264568D02*
Y286362D01*
X353822Y280162D02*
X361212Y287552D01*
X321390Y280162D02*
X353822D01*
X324363Y268378D02*
X324971Y268986D01*
X353430Y270856D02*
X354255D01*
X324971Y268986D02*
X351561D01*
X353430Y270856D01*
X322478Y230493D02*
X324363Y232378D01*
X322478Y208026D02*
Y230493D01*
X249953Y203652D02*
Y225418D01*
X402899Y240110D02*
X404089Y241300D01*
X388366Y277114D02*
X402899D01*
X401709Y226314D02*
X402899Y227504D01*
X388366Y219202D02*
Y226314D01*
Y219202D02*
X388895Y219732D01*
X388366Y226314D02*
X401709D01*
X388366Y264414D02*
X408786D01*
X388895Y219732D02*
X409448D01*
X408786Y264414D02*
X408940Y264568D01*
X420624Y256032D02*
X433936D01*
X420878Y281432D02*
X433212D01*
X388366Y297180D02*
X402899D01*
Y227504D02*
Y240110D01*
X386588Y217424D02*
X388366Y219202D01*
X354255Y217424D02*
X386588D01*
X404089Y241300D02*
X446780D01*
X450936Y245456D01*
Y256032D02*
Y282156D01*
Y245456D02*
Y256032D01*
X203291Y412750D02*
X317500D01*
X201558Y375412D02*
X232845Y406699D01*
X335073D01*
X165953Y375412D02*
X203291Y412750D01*
X236813Y398272D02*
X345205D01*
X345435Y398502D01*
X213953Y375412D02*
X236813Y398272D01*
X94172Y105472D02*
X94234Y105410D01*
X86896Y105472D02*
X94172D01*
X82042D02*
X86896D01*
X64520D02*
X81880D01*
Y105310D02*
X82042Y105472D01*
X156362Y180848D02*
X156972Y181458D01*
Y191008D01*
X153953Y194027D02*
X156972Y191008D01*
X153953Y194027D02*
Y225418D01*
X83731Y89472D02*
X86896D01*
X81598D02*
X83731D01*
X79720Y87594D02*
X81598Y89472D01*
X79720Y82296D02*
Y87594D01*
X357072Y46974D02*
X369078D01*
X357378Y44680D02*
Y46668D01*
X358568Y43490D02*
X362364D01*
X357378Y44680D02*
X358568Y43490D01*
X357072Y46974D02*
X357378Y46668D01*
X362364Y43490D02*
X362959Y42895D01*
X365028Y40826D01*
Y37846D02*
Y40826D01*
X640024Y152502D02*
X640170Y152356D01*
X613246Y152502D02*
X640024D01*
X562558Y129764D02*
X581242D01*
X560578Y127784D02*
X562558Y129764D01*
X81880Y91323D02*
Y105310D01*
X118364Y538866D02*
Y544513D01*
X113555Y549322D02*
X118364Y544513D01*
Y538866D02*
X120020Y537210D01*
X113555Y549322D02*
Y561406D01*
X118364Y566215D02*
Y571157D01*
X119571Y572364D01*
X113555Y561406D02*
X118364Y566215D01*
X127858Y555364D02*
X129128Y556634D01*
X129953D01*
X119571Y555364D02*
X127858D01*
X311668Y487547D02*
X329141D01*
X283616D02*
X311668D01*
Y485618D02*
Y487547D01*
Y485618D02*
X318398Y478888D01*
X47758Y432656D02*
X61054D01*
X47598Y432497D02*
X47758Y432656D01*
X61054D02*
X61214Y432816D01*
X272623Y511729D02*
Y519771D01*
Y503688D02*
Y511729D01*
X276846D02*
X282553Y517436D01*
X272623Y511729D02*
X276846D01*
X267623Y503556D02*
X272491D01*
X272623Y503688D01*
X99571Y572364D02*
X107523Y580316D01*
X357806Y608956D02*
X417263D01*
Y624863D01*
Y575115D02*
Y608956D01*
X581242Y143336D02*
X582432Y144526D01*
X589635D01*
X581242Y129764D02*
Y143336D01*
X589635Y144526D02*
X597611Y152502D01*
X613246D01*
X581242Y129764D02*
X596846D01*
X581242Y104086D02*
Y129764D01*
X368863Y485035D02*
X371040Y487212D01*
X335398Y485035D02*
X368863D01*
X371040Y487212D02*
X376550D01*
X283525Y487456D02*
X283616Y487547D01*
X282553Y517436D02*
X317346D01*
X326121Y526211D01*
Y534254D01*
X330092Y538224D01*
X340196D02*
X343121Y535300D01*
Y501527D02*
Y535300D01*
X330092Y538224D02*
X340196D01*
X329141Y487547D02*
X343121Y501527D01*
X283525Y487456D02*
X284722Y486260D01*
X81880Y91323D02*
X83731Y89472D01*
X233022Y496260D02*
X255261D01*
X228512Y500770D02*
X233022Y496260D01*
X222453Y500770D02*
X228512D01*
X239858Y503556D02*
X262623D01*
X237953Y505461D02*
Y510957D01*
Y505461D02*
X239858Y503556D01*
X205453Y484086D02*
X207776Y486409D01*
X222453D01*
Y500770D01*
X267623Y449072D02*
Y474095D01*
X268351Y449800D02*
X284139D01*
X267623Y449072D02*
X268351Y449800D01*
X322597Y503490D02*
X322662Y503556D01*
X277491Y503490D02*
X322597D01*
X245982Y539729D02*
X249953Y535758D01*
X232845Y539729D02*
X245982D01*
X302260Y463988D02*
X302432Y464160D01*
X318398D01*
X267623Y503556D02*
Y518088D01*
X249953Y535758D02*
X267623Y518088D01*
X275971Y530755D02*
X276154Y530938D01*
Y555364D01*
X230375Y67962D02*
X245263D01*
X369078Y46974D02*
X372952Y50848D01*
Y76424D01*
X226316Y91250D02*
X229341Y88226D01*
X240167D01*
X222316Y91250D02*
X226316D01*
X240167Y88226D02*
Y89051D01*
X57213Y478837D02*
Y491135D01*
X309898Y348408D02*
Y359363D01*
X309953Y359418D01*
X189484Y348408D02*
X189953Y348877D01*
Y359418D01*
X176378Y181864D02*
X189484D01*
X175362Y180848D02*
X176378Y181864D01*
X309172Y226199D02*
Y239522D01*
Y226199D02*
X309953Y225418D01*
X274320Y225785D02*
Y240284D01*
X273953Y225418D02*
X274320Y225785D01*
X189953Y225418D02*
Y239522D01*
X273813Y271564D02*
X289975D01*
X144883Y262282D02*
Y281044D01*
X88586Y233450D02*
Y237042D01*
X88138Y237490D02*
X88586Y237042D01*
X81953Y226817D02*
X88586Y233450D01*
X81953Y225418D02*
Y226817D01*
X87453Y352378D02*
X88413Y351418D01*
Y345830D02*
X88413Y345830D01*
X88413Y345830D02*
Y351418D01*
X87453Y352378D02*
Y353918D01*
X81953Y359418D02*
X87453Y353918D01*
X521970Y571863D02*
X542742D01*
X333176Y47078D02*
X343012D01*
X333072Y46974D02*
X333176Y47078D01*
X343012D02*
X343116Y47182D01*
X20066Y60452D02*
X37322D01*
X71628Y147238D02*
X87453D01*
X321564Y54398D02*
X332496D01*
X333072Y54974D01*
X314706Y62974D02*
X333072D01*
X225953Y348408D02*
Y359418D01*
X486143Y471329D02*
X493894D01*
X474613Y459799D02*
X486143Y471329D01*
X318398Y445160D02*
X339934D01*
X395478Y426720D02*
X429006D01*
X422656Y454902D02*
X428699D01*
X422349Y454594D02*
X422656Y454902D01*
X428699D02*
X429006Y454594D01*
X415995Y455199D02*
X416599Y454594D01*
X422349D01*
X429006D02*
Y455359D01*
X414913Y487212D02*
X428263D01*
X224555Y445182D02*
X225556Y446184D01*
X242570D01*
X224992Y462276D02*
X225185Y462469D01*
Y474095D01*
X512628Y327277D02*
X513943Y328592D01*
X486765Y327277D02*
X512628D01*
X137813Y180848D02*
X156362D01*
X213953Y343405D02*
Y359418D01*
Y343405D02*
X221824Y335534D01*
X273330D01*
X201953Y345527D02*
Y359418D01*
X187642Y331216D02*
X201953Y345527D01*
X95504Y331216D02*
X187642D01*
X94917Y374275D02*
X95023Y374170D01*
X94917Y374275D02*
Y390652D01*
X114517D02*
X138163D01*
X85863Y412750D02*
X100598D01*
X24008Y530883D02*
X24567Y531442D01*
X40953D01*
X151322Y537210D02*
X151398Y537286D01*
X137020Y537210D02*
X151322D01*
X85023Y516084D02*
X85090Y516151D01*
Y537210D01*
X62205Y519577D02*
X65698Y516084D01*
X85023D01*
X57213Y460626D02*
Y478837D01*
Y449800D02*
Y460626D01*
X32225Y511246D02*
X33421Y512442D01*
X24008Y511246D02*
X32225D01*
X33421Y512442D02*
X40953D01*
X66758Y571319D02*
X81953D01*
X49473Y571604D02*
X66758Y554319D01*
X66967Y554110D02*
X91773D01*
X66758Y554319D02*
X66967Y554110D01*
X117598Y412750D02*
X118897Y414049D01*
Y434947D01*
X40953Y531442D02*
X41402Y531891D01*
Y555092D01*
Y571604D02*
X49473D01*
X91773Y553364D02*
X99571D01*
X177953Y348408D02*
Y359418D01*
X148336Y340378D02*
X169923D01*
X177953Y348408D01*
X162453Y354860D02*
Y355918D01*
X141853Y348408D02*
X156002D01*
X162453Y354860D01*
Y355918D02*
X165953Y359418D01*
X509040Y465452D02*
Y479868D01*
Y465452D02*
X509754Y464739D01*
X504444Y481879D02*
Y486692D01*
X505634Y487882D02*
X523822D01*
X504444Y486692D02*
X505634Y487882D01*
X493894Y471329D02*
X504444Y481879D01*
X318398Y464160D02*
Y478888D01*
X584884Y426212D02*
X591820D01*
X576970Y493217D02*
X591820D01*
X561488Y474217D02*
X576970D01*
X547822Y487882D02*
X561488Y474217D01*
X576500Y493686D02*
X576970Y493217D01*
X482092Y489074D02*
X493149D01*
X495198Y444464D02*
Y450182D01*
X509754Y464739D01*
X523822Y454089D02*
Y468883D01*
X514198Y444464D02*
X523822Y454089D01*
X576970Y444464D02*
X579002Y442433D01*
X576970Y444464D02*
Y474217D01*
X546998Y442687D02*
Y468059D01*
X547822Y468883D01*
X546998Y425687D02*
X561488D01*
X579002Y425433D02*
X584105D01*
X584884Y426212D01*
X493149Y489074D02*
X493894Y488329D01*
X513804Y484632D02*
X523822D01*
X523214Y477774D02*
X523822Y478382D01*
X514096Y477774D02*
X523214D01*
X523822Y484632D02*
Y487882D01*
X509040Y479868D02*
X513804Y484632D01*
X576500Y493686D02*
Y513755D01*
X335144Y498545D02*
Y530755D01*
X327924Y491325D02*
X335144Y498545D01*
X284854Y491325D02*
X327924D01*
X393550Y456183D02*
X394534Y455199D01*
X415995D01*
X393550Y487212D02*
X414913D01*
X369062Y411734D02*
X612902D01*
X368237Y387099D02*
X369062D01*
X379913Y563363D02*
X508032D01*
X347290Y456183D02*
X376550D01*
X345435Y455014D02*
X346122D01*
X347290Y456183D01*
X366480Y385342D02*
X368237Y387099D01*
X557956Y371290D02*
X560578Y368668D01*
X297953Y372883D02*
X305562Y380492D01*
X557956Y371290D02*
Y378632D01*
X556096Y380492D02*
X557956Y378632D01*
X305562Y380492D02*
X556096D01*
X612902Y411734D02*
X614680Y413512D01*
X521970Y530755D02*
X542036D01*
X521970Y554863D02*
X542036D01*
X521970Y591956D02*
X542036D01*
X542742Y608956D02*
X557956D01*
X521970D02*
X542742D01*
X607024Y447548D02*
X607680Y446892D01*
X597662Y447548D02*
X607024D01*
X607680Y446892D02*
X614680D01*
X580800Y306832D02*
X595258D01*
X542742Y350168D02*
X560578D01*
X561666Y362830D02*
X563224D01*
X560578Y363918D02*
X561666Y362830D01*
X560578Y363918D02*
Y368668D01*
X563224Y362830D02*
X575310Y350744D01*
Y320468D02*
Y350744D01*
X273978Y385342D02*
X366480D01*
X266436Y390652D02*
X357806D01*
X297953Y359418D02*
Y372883D01*
X249953Y374170D02*
X266436Y390652D01*
X614680Y413512D02*
Y428392D01*
X486765Y346877D02*
Y372979D01*
X327760Y374170D02*
X485574D01*
X324363Y370772D02*
X327760Y374170D01*
X485574D02*
X486765Y372979D01*
X324363Y352378D02*
Y370772D01*
X420898Y328686D02*
X462398D01*
X420898Y321114D02*
X433936Y308076D01*
X420898Y321114D02*
Y328686D01*
X249953Y359418D02*
Y374170D01*
X645452Y384810D02*
X659210D01*
X660400Y386000D02*
Y420116D01*
X659210Y384810D02*
X660400Y386000D01*
X644826Y384184D02*
X645452Y384810D01*
X653690Y426826D02*
X660400Y420116D01*
X644826Y426826D02*
X653690D01*
X484374Y292378D02*
X484540Y292544D01*
X470333Y292378D02*
X484374D01*
X513943Y347592D02*
X530199D01*
X352044Y306578D02*
X352570Y307104D01*
X364744D01*
X433212Y281432D02*
X433936Y282156D01*
X225953Y200767D02*
Y225418D01*
X450936Y308076D02*
X450936Y308076D01*
X450936Y282156D02*
Y308076D01*
Y282156D02*
X450936Y282156D01*
X261953Y217953D02*
Y225418D01*
X267623Y474095D02*
X272623D01*
X285953Y607090D02*
X297181D01*
X284226Y596392D02*
Y605363D01*
X285953Y607090D01*
X295754Y530755D02*
X318144D01*
X317502Y555364D02*
X318398Y556260D01*
X295754Y555364D02*
X317502D01*
X272623Y519771D02*
X276154Y523301D01*
X242570Y470526D02*
X246138Y474095D01*
X262623D01*
X242570Y446184D02*
Y470526D01*
X225185Y474095D02*
X232416Y481325D01*
X255393D01*
X119997Y147238D02*
X120489Y147730D01*
X100453Y147238D02*
X119997D01*
X110896Y89472D02*
X121476D01*
X127508Y95504D01*
X140449D01*
X141281Y96336D01*
X110896Y97472D02*
X120489D01*
X120659Y97642D01*
X627004Y30104D02*
X627380Y30480D01*
X609564Y30104D02*
X627004D01*
X563435Y31242D02*
X564573Y30104D01*
X581564D01*
X562610Y31242D02*
X563435D01*
X418862Y28432D02*
X439907D01*
X440177Y28702D01*
X405638Y46736D02*
X405834Y46932D01*
X423508D01*
X386657Y30974D02*
X390199Y27432D01*
X405192D01*
X409448Y37846D02*
X418862Y28432D01*
X365028Y37846D02*
X409448D01*
X405192Y47182D02*
X405638Y46736D01*
X389449Y47182D02*
X405192D01*
X357072Y30974D02*
X386657D01*
X357072D02*
Y38974D01*
X372952Y76424D02*
X374142Y77614D01*
X385590D01*
X357072Y54974D02*
X367859D01*
X357072Y62974D02*
X359265D01*
X367859Y71568D01*
Y90618D01*
X363857Y94620D02*
X367859Y90618D01*
X299696Y169460D02*
X336363D01*
X297953Y167717D02*
X299696Y169460D01*
X297953Y145041D02*
Y167717D01*
Y125441D02*
X299696Y123698D01*
X314706D01*
X55822Y77412D02*
X60706Y82296D01*
X55822Y60452D02*
Y77412D01*
X60706Y82296D02*
X79720D01*
X241175Y345186D02*
X254762D01*
X237953Y348408D02*
X241175Y345186D01*
X222316Y22982D02*
X253673D01*
X230375Y67962D02*
X231817Y66521D01*
Y42982D02*
Y66521D01*
X212816Y42982D02*
X213375Y43541D01*
Y67962D01*
X212973Y68364D02*
X213375Y67962D01*
X182869Y68364D02*
X212973D01*
X229867Y144834D02*
X247411D01*
X212816Y111250D02*
X212867Y111301D01*
Y144834D01*
X182869Y95910D02*
X186613D01*
X201953Y111250D01*
X212816D01*
X183783Y115824D02*
X197866D01*
X182869Y114910D02*
X183783Y115824D01*
X140855Y49364D02*
X141281Y49790D01*
X124714Y49364D02*
X140855D01*
X182443Y49790D02*
X182869Y49364D01*
X141281Y49790D02*
X182443D01*
X182443Y115336D02*
X182869Y114910D01*
X141281Y115336D02*
X182443D01*
X253673Y61752D02*
X254159Y62238D01*
X266599D01*
X521970Y513755D02*
X542742D01*
X507559D02*
X521970D01*
X417263Y575115D02*
X420515Y571863D01*
X428263Y624863D02*
X429006Y624120D01*
X428263Y608956D02*
Y624863D01*
X420515Y571863D02*
X521970D01*
X439263Y602391D02*
X449698Y591956D01*
X439263Y602391D02*
Y624863D01*
X449698Y591956D02*
X521970D01*
X450263Y608956D02*
Y624863D01*
X89773Y592040D02*
Y602388D01*
X73023Y619138D02*
Y622840D01*
Y619138D02*
X89773Y602388D01*
X102648Y622840D02*
X104648Y624840D01*
X73023Y622840D02*
X102648D01*
X129073Y592040D02*
X138273D01*
X127023Y594090D02*
X129073Y592040D01*
X138273D02*
Y594042D01*
X155023Y610792D02*
Y622840D01*
X138273Y594042D02*
X155023Y610792D01*
X123398Y624840D02*
X153023D01*
X155023Y622840D01*
X104648Y624840D02*
X123398D01*
X318262Y426720D02*
X378478D01*
X560578Y102764D02*
X576064D01*
X560578Y157764D02*
X581242D01*
X641522Y70552D02*
X643106Y72136D01*
X652272D01*
X636520Y70552D02*
X641522D01*
X336241Y150338D02*
X336363Y150460D01*
X321564Y150216D02*
X321686Y150338D01*
X336241D01*
X385596Y94620D02*
X398272D01*
X385590Y94614D02*
X385596Y94620D01*
X357547Y122876D02*
X372622D01*
X372952Y122546D01*
X237953Y348408D02*
Y359418D01*
X110896Y89472D02*
X112086Y88282D01*
X141281Y96336D02*
X141953Y95664D01*
X110896Y72746D02*
Y81472D01*
X114852Y68790D02*
X141281D01*
X110896Y72746D02*
X114852Y68790D01*
X20066Y97472D02*
X36624D01*
X37322Y96774D01*
X213953Y225418D02*
Y239522D01*
X201953Y225418D02*
Y239522D01*
X166370Y225835D02*
Y239522D01*
X165953Y225418D02*
X166370Y225835D01*
X245263Y300804D02*
X273813D01*
X245263Y271564D02*
Y300804D01*
Y271564D02*
X273813D01*
X99571Y543306D02*
X105587Y549322D01*
X99571Y569364D02*
X105587Y563348D01*
X99571Y539729D02*
Y543306D01*
X105587Y549322D02*
Y563348D01*
X99571Y569364D02*
Y572364D01*
Y539729D02*
X102090Y537210D01*
X91773Y554110D02*
Y576432D01*
X107523Y580316D02*
Y594090D01*
X114023Y577912D02*
Y594090D01*
Y577912D02*
X119571Y572364D01*
X119131Y517770D02*
X120020Y518659D01*
Y537210D01*
X99829Y517770D02*
X102090Y520031D01*
Y537210D01*
X91773Y576432D02*
X101023Y585682D01*
Y594090D01*
X61141Y531442D02*
X62783Y533084D01*
X40953Y531442D02*
X61141D01*
X614680Y428392D02*
X616246Y426826D01*
X644826D01*
X612258Y306832D02*
Y313156D01*
X575310Y320468D02*
X576500Y319278D01*
X606136D01*
X612258Y313156D01*
X643048Y325256D02*
X645334Y327542D01*
X643048Y309599D02*
Y325256D01*
X640281Y306832D02*
X643048Y309599D01*
X612258Y306832D02*
X640281D01*
X576064Y63264D02*
X596846Y84046D01*
X576064Y57764D02*
Y63264D01*
X596846Y84046D02*
X615786D01*
X589064Y63264D02*
X596846Y71046D01*
X589064Y57764D02*
Y63264D01*
X596846Y71046D02*
X615786D01*
Y84046D02*
X619292Y87552D01*
X636520D01*
X595564Y102764D02*
Y106694D01*
X603980Y115110D01*
X621124D01*
X640170Y134156D01*
Y132356D02*
Y134156D01*
X640024Y132210D02*
X640170Y132356D01*
X589064Y114020D02*
X590254Y115210D01*
X594954D01*
X589064Y102764D02*
Y114020D01*
X594954Y115210D02*
X613246Y133502D01*
X584507Y48825D02*
X585625D01*
X581068Y45386D02*
X581564Y44890D01*
X581068Y45386D02*
X584507Y48825D01*
X585625D02*
X589064Y52264D01*
Y57764D01*
X581564Y30104D02*
Y44890D01*
X355055Y94620D02*
X363857D01*
X342055D02*
Y119368D01*
X338547Y122876D02*
X342055Y119368D01*
X335280Y170543D02*
X336363Y169460D01*
X388312Y324104D02*
X391414Y321002D01*
X389808Y347608D02*
X391414Y346002D01*
X494863Y621363D02*
X508032Y608194D01*
X520446D01*
X484540Y246767D02*
Y275544D01*
X137813Y282504D02*
Y304324D01*
X115633Y282504D02*
Y304324D01*
X137813D01*
D21*
X279146Y138176D02*
D03*
X549402Y31242D02*
D03*
X659130Y151892D02*
D03*
X522986Y81280D02*
D03*
X429768Y180594D02*
D03*
X369824Y104140D02*
D03*
X283718Y60706D02*
D03*
X102362Y46228D02*
D03*
X72644Y61976D02*
D03*
X402590Y77470D02*
D03*
X230886Y165354D02*
D03*
X56642Y122936D02*
D03*
X423164Y64516D02*
D03*
X358648Y149860D02*
D03*
X153670Y480314D02*
D03*
X409448Y219732D02*
D03*
Y264060D02*
D03*
X388366Y297180D02*
D03*
X560578Y127784D02*
D03*
X614680Y472599D02*
D03*
X576500Y513755D02*
D03*
X542742D02*
D03*
Y571863D02*
D03*
X160249Y454879D02*
D03*
X224555Y445182D02*
D03*
X415995Y455199D02*
D03*
X414913Y487212D02*
D03*
X417923Y426364D02*
D03*
X205453Y484086D02*
D03*
X542742Y608956D02*
D03*
D22*
X543814Y82194D02*
D03*
Y101194D02*
D03*
X469247Y100862D02*
D03*
Y81862D02*
D03*
X318398Y464160D02*
D03*
Y445160D02*
D03*
X576970Y493217D02*
D03*
Y474217D02*
D03*
X35052Y460961D02*
D03*
Y479961D02*
D03*
X336363Y169460D02*
D03*
Y150460D02*
D03*
X513943Y328592D02*
D03*
Y347592D02*
D03*
X182869Y114910D02*
D03*
Y95910D02*
D03*
Y49364D02*
D03*
Y68364D02*
D03*
X141281Y49790D02*
D03*
Y68790D02*
D03*
Y115336D02*
D03*
Y96336D02*
D03*
X613246Y152502D02*
D03*
Y133502D02*
D03*
D23*
X266599Y62238D02*
D03*
Y79238D02*
D03*
X645334Y344542D02*
D03*
X644826Y401184D02*
D03*
X242570Y429184D02*
D03*
Y446184D02*
D03*
X267462Y101110D02*
D03*
Y118110D02*
D03*
X644826Y384184D02*
D03*
X546998Y442687D02*
D03*
Y425687D02*
D03*
X521970Y513755D02*
D03*
Y530755D02*
D03*
Y554863D02*
D03*
Y571863D02*
D03*
X636520Y87552D02*
D03*
Y70552D02*
D03*
X99829Y500770D02*
D03*
Y517770D02*
D03*
X645334Y327542D02*
D03*
X644826Y443826D02*
D03*
Y426826D02*
D03*
X484540Y292544D02*
D03*
Y275544D02*
D03*
X119131Y517770D02*
D03*
Y500770D02*
D03*
D24*
X475590Y181610D02*
D03*
X456590D02*
D03*
X322478Y208026D02*
D03*
X341478D02*
D03*
X175362Y180848D02*
D03*
X156362D02*
D03*
D25*
X422882Y103378D02*
D03*
X439882D02*
D03*
X222453Y500770D02*
D03*
X205453D02*
D03*
X433936Y256032D02*
D03*
X450936D02*
D03*
X57213Y460626D02*
D03*
X74213D02*
D03*
Y478837D02*
D03*
X57213D02*
D03*
X102090Y537210D02*
D03*
X85090D02*
D03*
X137020D02*
D03*
X120020D02*
D03*
D26*
X495554Y81614D02*
D03*
Y100614D02*
D03*
X249953Y535758D02*
D03*
Y554758D02*
D03*
X267623Y449072D02*
D03*
Y430072D02*
D03*
X389449Y28182D02*
D03*
Y47182D02*
D03*
X40953Y512442D02*
D03*
Y531442D02*
D03*
D27*
X458971Y150898D02*
D03*
Y144548D02*
D03*
Y137944D02*
D03*
Y131594D02*
D03*
X504183D02*
D03*
Y137944D02*
D03*
Y144548D02*
D03*
Y150898D02*
D03*
D28*
X542429Y122576D02*
D03*
Y139576D02*
D03*
X364744Y324104D02*
D03*
Y307104D02*
D03*
X493894Y488329D02*
D03*
Y471329D02*
D03*
X579002Y425433D02*
D03*
Y442433D02*
D03*
X62783Y533084D02*
D03*
Y516084D02*
D03*
X66758Y554319D02*
D03*
Y571319D02*
D03*
X385590Y77614D02*
D03*
Y94614D02*
D03*
X364418Y347608D02*
D03*
Y364608D02*
D03*
X521970Y608956D02*
D03*
Y591956D02*
D03*
D29*
X299720Y40790D02*
D03*
Y27790D02*
D03*
Y63096D02*
D03*
Y76096D02*
D03*
X265430Y136248D02*
D03*
Y149248D02*
D03*
X265176Y26266D02*
D03*
Y39266D02*
D03*
X615786Y84046D02*
D03*
Y71046D02*
D03*
D30*
X627732Y351028D02*
D03*
X625605Y398272D02*
D03*
X586232Y351028D02*
D03*
X584105Y398272D02*
D03*
X627732Y329528D02*
D03*
X586232D02*
D03*
X625605Y376772D02*
D03*
X584105D02*
D03*
X420898Y350186D02*
D03*
X462398D02*
D03*
Y328686D02*
D03*
X420898D02*
D03*
D31*
X94811Y483182D02*
D03*
D32*
Y478682D02*
D03*
Y474182D02*
D03*
Y469682D02*
D03*
Y465182D02*
D03*
Y460682D02*
D03*
X123121D02*
D03*
Y465182D02*
D03*
Y469682D02*
D03*
Y474182D02*
D03*
Y478682D02*
D03*
Y483182D02*
D03*
D33*
X157163Y390652D02*
D03*
X138163D02*
D03*
X514198Y444464D02*
D03*
X495198D02*
D03*
X338547Y122876D02*
D03*
X357547D02*
D03*
D34*
X450936Y282156D02*
D03*
X433936D02*
D03*
X224992Y462276D02*
D03*
X207992D02*
D03*
X335144Y530755D02*
D03*
X318144D02*
D03*
X612258Y306832D02*
D03*
X595258D02*
D03*
X335398Y556260D02*
D03*
X318398D02*
D03*
X117598Y412750D02*
D03*
X100598D02*
D03*
X30598Y432497D02*
D03*
X47598D02*
D03*
X450936Y308076D02*
D03*
X433936D02*
D03*
X376550Y487212D02*
D03*
X393550D02*
D03*
X378478Y426720D02*
D03*
X395478D02*
D03*
X376550Y456183D02*
D03*
X393550D02*
D03*
X229867Y144834D02*
D03*
X212867D02*
D03*
X230375Y67962D02*
D03*
X213375D02*
D03*
X223357Y526363D02*
D03*
X206357D02*
D03*
D35*
X122703Y302864D02*
D03*
X144883D02*
D03*
X122703Y281044D02*
D03*
X144883D02*
D03*
X245263Y300804D02*
D03*
X273813D02*
D03*
X245263Y271564D02*
D03*
X273813D02*
D03*
D36*
X324363Y244378D02*
D03*
Y352378D02*
D03*
Y340378D02*
D03*
Y328378D02*
D03*
Y316378D02*
D03*
Y304378D02*
D03*
Y292378D02*
D03*
Y280378D02*
D03*
Y268378D02*
D03*
Y256378D02*
D03*
Y232378D02*
D03*
D37*
X81953Y359418D02*
D03*
X93953D02*
D03*
X105953D02*
D03*
X117953D02*
D03*
X129953D02*
D03*
X141953D02*
D03*
X153953D02*
D03*
X165953D02*
D03*
X177953D02*
D03*
X189953D02*
D03*
X201953D02*
D03*
X213953D02*
D03*
X225953D02*
D03*
X237953D02*
D03*
X249953D02*
D03*
X261953D02*
D03*
X273953D02*
D03*
X285953D02*
D03*
X297953D02*
D03*
X309953D02*
D03*
Y225418D02*
D03*
X297953D02*
D03*
X285953D02*
D03*
X273953D02*
D03*
X261953D02*
D03*
X249953D02*
D03*
X237953D02*
D03*
X225953D02*
D03*
X213953D02*
D03*
X201953D02*
D03*
X189953D02*
D03*
X177953D02*
D03*
X165953D02*
D03*
X153953D02*
D03*
X141953D02*
D03*
X129953D02*
D03*
X117953D02*
D03*
X105953D02*
D03*
X93953D02*
D03*
X81953D02*
D03*
D38*
X101023Y594090D02*
D03*
X114023D02*
D03*
X120523D02*
D03*
X127023D02*
D03*
X107523D02*
D03*
D39*
X123398Y624840D02*
D03*
X104648D02*
D03*
D40*
X581242Y157764D02*
D03*
Y129764D02*
D03*
D41*
X484540Y246767D02*
D03*
Y227167D02*
D03*
X297953Y145041D02*
D03*
Y125441D02*
D03*
X486765Y346877D02*
D03*
Y327277D02*
D03*
D42*
X609564Y30104D02*
D03*
X581564D02*
D03*
D43*
X276154Y555364D02*
D03*
X295754D02*
D03*
X275971Y530755D02*
D03*
X295571D02*
D03*
X114517Y390652D02*
D03*
X94917D02*
D03*
X118897Y434947D02*
D03*
X99297D02*
D03*
D44*
X262491Y474029D02*
D03*
D45*
X267491D02*
D03*
X272491D02*
D03*
X277491D02*
D03*
Y503490D02*
D03*
X272491D02*
D03*
X267491D02*
D03*
X262491D02*
D03*
D46*
X284722Y481260D02*
D03*
Y486260D02*
D03*
Y491260D02*
D03*
Y496260D02*
D03*
X255261D02*
D03*
Y491260D02*
D03*
Y486260D02*
D03*
Y481260D02*
D03*
D47*
X614680Y428392D02*
D03*
Y446892D02*
D03*
X423508Y28432D02*
D03*
Y46932D02*
D03*
X560578Y368668D02*
D03*
Y350168D02*
D03*
D48*
X41402Y571604D02*
D03*
Y555092D02*
D03*
D49*
X99571Y553364D02*
D03*
Y572364D02*
D03*
X119571D02*
D03*
D50*
Y555364D02*
D03*
D51*
X357072Y70974D02*
D03*
Y62974D02*
D03*
Y54974D02*
D03*
Y46974D02*
D03*
Y38974D02*
D03*
Y30974D02*
D03*
Y22974D02*
D03*
X333072D02*
D03*
Y30974D02*
D03*
Y38974D02*
D03*
Y46974D02*
D03*
Y54974D02*
D03*
Y62974D02*
D03*
Y70974D02*
D03*
D52*
X523822Y487882D02*
D03*
Y478382D02*
D03*
Y468883D02*
D03*
X547822D02*
D03*
Y487882D02*
D03*
D53*
X86896Y105472D02*
D03*
Y97472D02*
D03*
Y89472D02*
D03*
Y81272D02*
D03*
X110896Y81472D02*
D03*
Y89472D02*
D03*
Y97472D02*
D03*
Y105472D02*
D03*
D54*
X595564Y57764D02*
D03*
X589064D02*
D03*
X582564D02*
D03*
X576064D02*
D03*
Y102764D02*
D03*
X582564D02*
D03*
X589064D02*
D03*
X595564D02*
D03*
D55*
X355055Y94620D02*
D03*
X342055D02*
D03*
X101586Y62230D02*
D03*
X88586D02*
D03*
X87453Y147238D02*
D03*
X100453D02*
D03*
D56*
X231817Y111250D02*
D03*
X212816D02*
D03*
X222316Y91250D02*
D03*
X231817Y42982D02*
D03*
X212816D02*
D03*
X222316Y22982D02*
D03*
D57*
X55822Y96774D02*
D03*
X37322D02*
D03*
Y60452D02*
D03*
X55822D02*
D03*
D58*
X640170Y134156D02*
D03*
Y152356D02*
D03*
D59*
X391414Y321002D02*
D03*
Y346002D02*
D03*
D60*
X474613Y516613D02*
D03*
X414913D02*
D03*
D61*
X379913Y563363D02*
D03*
Y526363D02*
D03*
D62*
X381663Y623613D02*
D03*
D63*
X406263Y624863D02*
D03*
X417263D02*
D03*
X428263D02*
D03*
X439263D02*
D03*
X450263D02*
D03*
X461263D02*
D03*
X472263D02*
D03*
D64*
X482763D02*
D03*
D65*
X494863Y621363D02*
D03*
D75*
X108966Y471932D02*
D03*
D89*
X269991Y488760D02*
D03*
D112*
X17526Y586486D02*
D03*
X656844Y55372D02*
D03*
X64520Y23562D02*
D03*
D113*
X462280Y33274D02*
D03*
X487680D02*
D03*
X271781Y607090D02*
D03*
X297181D02*
D03*
D114*
X513080Y33274D02*
D03*
X246381Y607090D02*
D03*
D115*
X388366Y226314D02*
D03*
X375666D02*
D03*
Y251714D02*
D03*
Y239014D02*
D03*
X388366Y251714D02*
D03*
Y239014D02*
D03*
Y264414D02*
D03*
Y277114D02*
D03*
X375666Y264414D02*
D03*
Y277114D02*
D03*
D116*
X155023Y622840D02*
D03*
X73023D02*
D03*
D117*
X138273Y592040D02*
D03*
X89773D02*
D03*
D118*
X24008Y618918D02*
D03*
X649732Y619252D02*
D03*
X25654Y24638D02*
D03*
X649732Y23368D02*
D03*
D119*
X442214Y172720D02*
D03*
X111506Y62230D02*
D03*
X625348Y409194D02*
D03*
X573278Y398272D02*
D03*
X585216Y360934D02*
D03*
X627634D02*
D03*
X79756Y439674D02*
D03*
Y449326D02*
D03*
X385826Y67818D02*
D03*
X312166Y75184D02*
D03*
X355055Y105546D02*
D03*
X321564Y54398D02*
D03*
X125476Y16256D02*
D03*
X560578Y81534D02*
D03*
X510794Y82042D02*
D03*
X510540Y100584D02*
D03*
X463296Y14986D02*
D03*
X488442Y7112D02*
D03*
X322326Y7874D02*
D03*
X512572Y18288D02*
D03*
X312674Y188976D02*
D03*
X451986Y81424D02*
D03*
X521970Y145034D02*
D03*
X486156Y165608D02*
D03*
X441882Y181610D02*
D03*
X492252Y181356D02*
D03*
X476250Y136652D02*
D03*
X280162Y79502D02*
D03*
Y117856D02*
D03*
X287528Y27432D02*
D03*
X313944Y16002D02*
D03*
X275082Y39624D02*
D03*
X247411Y112138D02*
D03*
X310388Y209804D02*
D03*
X157163Y406699D02*
D03*
X358648Y208280D02*
D03*
X354255Y217424D02*
D03*
Y270856D02*
D03*
X420878Y281432D02*
D03*
X402899Y297180D02*
D03*
Y277114D02*
D03*
X420624Y256032D02*
D03*
X470154Y270510D02*
D03*
Y281178D02*
D03*
X317500Y412750D02*
D03*
X335073Y406699D02*
D03*
X94234Y105410D02*
D03*
X129953Y556634D02*
D03*
X61214Y432816D02*
D03*
X366268Y624332D02*
D03*
X461263Y608956D02*
D03*
X472263Y609020D02*
D03*
X335398Y485035D02*
D03*
X482092Y489074D02*
D03*
X193191Y525858D02*
D03*
X207776Y449072D02*
D03*
X291966Y449625D02*
D03*
X302260Y463988D02*
D03*
X193191Y500601D02*
D03*
X368237Y525858D02*
D03*
X346941Y556028D02*
D03*
X420624Y361141D02*
D03*
X379180Y364608D02*
D03*
X245263Y67962D02*
D03*
X240167Y88226D02*
D03*
X57213Y491135D02*
D03*
X7620Y176276D02*
D03*
X25146Y175514D02*
D03*
X51562Y176276D02*
D03*
X72390Y185674D02*
D03*
X72773Y212344D02*
D03*
Y244378D02*
D03*
X72390Y278384D02*
D03*
X72773Y304378D02*
D03*
Y331216D02*
D03*
Y355918D02*
D03*
X73023Y375412D02*
D03*
X72773Y392684D02*
D03*
X61508Y410203D02*
D03*
X37555D02*
D03*
X13933D02*
D03*
X309898Y348408D02*
D03*
X189484D02*
D03*
X189953Y239522D02*
D03*
X189484Y181864D02*
D03*
X274320Y240284D02*
D03*
X309172Y239522D02*
D03*
X289975Y271564D02*
D03*
X144883Y262282D02*
D03*
X88138Y237490D02*
D03*
X88413Y345830D02*
D03*
X596846Y129764D02*
D03*
X343116Y47182D02*
D03*
X20066Y60452D02*
D03*
X71628Y147238D02*
D03*
X197948Y8382D02*
D03*
X284139Y449800D02*
D03*
X474613Y459799D02*
D03*
X339934Y445160D02*
D03*
X222453Y486409D02*
D03*
X137813Y180848D02*
D03*
X95504Y331216D02*
D03*
X95023Y374170D02*
D03*
X74213Y429768D02*
D03*
X85863Y412750D02*
D03*
X24008Y530883D02*
D03*
X151398Y537286D02*
D03*
X85023Y516084D02*
D03*
X57213Y449800D02*
D03*
X81953Y571319D02*
D03*
X148336Y340378D02*
D03*
X141853Y348408D02*
D03*
Y440332D02*
D03*
X148336Y467872D02*
D03*
X232845Y539729D02*
D03*
X230508Y429768D02*
D03*
X561488Y425687D02*
D03*
X514096Y477774D02*
D03*
X429006Y455359D02*
D03*
Y426720D02*
D03*
X428263Y487212D02*
D03*
X369062Y411734D02*
D03*
Y387099D02*
D03*
X345435Y398502D02*
D03*
X508032Y563363D02*
D03*
X557956Y608956D02*
D03*
X542036Y530755D02*
D03*
Y554863D02*
D03*
Y591956D02*
D03*
X357806Y390652D02*
D03*
X273978Y385342D02*
D03*
X345435Y455014D02*
D03*
X273330Y335534D02*
D03*
X591820Y493217D02*
D03*
X597662Y447548D02*
D03*
X580800Y306832D02*
D03*
X542742Y350168D02*
D03*
X530199Y347592D02*
D03*
X470333Y292378D02*
D03*
X352044Y306578D02*
D03*
X355055Y183257D02*
D03*
X284226Y596392D02*
D03*
X322662Y503556D02*
D03*
X314706Y62974D02*
D03*
X120489Y147730D02*
D03*
X120659Y97642D02*
D03*
X627380Y30480D02*
D03*
X562610Y31242D02*
D03*
X440177Y28702D02*
D03*
X405192Y27432D02*
D03*
X367859Y54974D02*
D03*
X405638Y46736D02*
D03*
X314706Y123698D02*
D03*
X254762Y345186D02*
D03*
X253673Y22982D02*
D03*
X247411Y144834D02*
D03*
X197866Y115824D02*
D03*
X124714Y49364D02*
D03*
X253673Y61752D02*
D03*
X507559Y513755D02*
D03*
X428263Y608956D02*
D03*
X357806D02*
D03*
X591820Y426212D02*
D03*
X450263Y608956D02*
D03*
X24008Y511246D02*
D03*
X136273Y468276D02*
D03*
X318262Y426720D02*
D03*
X560578Y102764D02*
D03*
Y157764D02*
D03*
X652272Y72136D02*
D03*
X321564Y150216D02*
D03*
X372952Y122546D02*
D03*
X398272Y94620D02*
D03*
X225953Y348408D02*
D03*
X213953Y375412D02*
D03*
X165953D02*
D03*
X201558D02*
D03*
X213953Y239522D02*
D03*
X201953D02*
D03*
X166370D02*
D03*
X20066Y97472D02*
D03*
M02*
