G04*
G04 #@! TF.GenerationSoftware,Altium Limited,Altium Designer,23.1.1 (15)*
G04*
G04 Layer_Color=32896*
%FSLAX44Y44*%
%MOMM*%
G71*
G04*
G04 #@! TF.SameCoordinates,A7A263A4-54A1-4128-965A-35385578E642*
G04*
G04*
G04 #@! TF.FilePolarity,Positive*
G04*
G01*
G75*
%ADD120C,0.5080*%
D120*
X1016Y254D02*
Y182418D01*
Y254D02*
X673608D01*
X173918Y642418D02*
X386758Y642408D01*
X508Y642418D02*
X58418Y642408D01*
X394508Y638918D02*
X494508D01*
X502258Y642418D02*
X673608Y642418D01*
X673608Y254D01*
X1016Y182418D02*
X61508D01*
X65508Y398418D02*
X65508Y186418D01*
X61508Y182418D02*
X62399Y182517D01*
X63245Y182812D01*
X64004Y183289D01*
X64637Y183922D01*
X65114Y184681D01*
X65409Y185527D01*
X65508Y186418D01*
X65409Y399308D02*
X65508Y398418D01*
X65114Y400154D02*
X65409Y399308D01*
X64637Y400913D02*
X65114Y400154D01*
X64003Y401547D02*
X64637Y400913D01*
X63245Y402023D02*
X64003Y401547D01*
X62399Y402318D02*
X63245Y402023D01*
X61508Y402418D02*
X62399Y402318D01*
X508Y402418D02*
X61508D01*
X508Y642418D02*
X508Y402418D01*
X58418Y642408D02*
X60030Y640932D01*
X61917Y639828D01*
X63994Y639147D01*
X67193Y638810D01*
X165140D01*
X168344Y639146D01*
X170422Y639829D01*
X172308Y640937D01*
X173918Y642418D01*
X386758Y642408D02*
X388370Y640932D01*
X390257Y639828D01*
X392334Y639147D01*
X394508Y638918D01*
X494508D02*
X496684Y639146D01*
X498762Y639829D01*
X500648Y640937D01*
X502258Y642418D01*
M02*
