M48
;Layer_Color=9474304
;FILE_FORMAT=4:4
METRIC,LZ
;TYPE=PLATED
T1F00S00C0.2032
T3F00S00C0.6502
T5F00S00C1.2700
T6F00S00C2.7000
%
T01
X00197948Y00008382
X00322326Y00007874
X00488442Y00007112
X0062738Y0003048
X00652272Y00072136
X00627634Y00360934
X00585216
X00573278Y00398272
X00542742Y00350168
X00530199Y00347592
X005808Y00306832
X00470333Y00292378
X00470154Y00281178
Y0027051
X00420878Y00281432
X00402899Y00277114
Y0029718
X00420624Y00256032
X00354255Y00270856
X00352044Y00306578
X00309898Y00348408
X0027333Y00335534
X00254762Y00345186
X00225953Y00348408
X00273978Y00385342
X00345435Y00398502
X00357806Y00390652
X00369062Y00387099
X0037918Y00364608
X00420624Y00361141
X00441882Y0018161
X00442214Y0017272
X00486156Y00165608
X00492252Y00181356
X0047625Y00136652
X0052197Y00145034
X00560578Y00157764
Y00102764
Y00081534
X00510794Y00082042
X0051054Y00100584
X00451986Y00081424
X00440177Y00028702
X00405192Y00027432
X00405638Y00046736
X00385826Y00067818
X00367859Y00054974
X00343116Y00047182
X00321564Y00054398
X00314706Y00062974
X00312166Y00075184
X00280162Y00079502
Y00117856
X00247411Y00112138
X00240167Y00088226
X00245263Y00067962
X00253673Y00061752
Y00022982
X00275082Y00039624
X00287528Y00027432
X00313944Y00016002
X00314706Y00123698
X00321564Y00150216
X00312674Y00188976
X00310388Y00209804
X00309172Y00239522
X0027432Y00240284
X00289975Y00271564
X00354255Y00217424
X00358648Y0020828
X00355055Y00183257
Y00105546
X00372952Y00122546
X00398272Y0009462
X00463296Y00014986
X00512572Y00018288
X0056261Y00031242
X00596846Y00129764
X00247411Y00144834
X00197866Y00115824
X00189484Y00181864
X00137813Y00180848
X00120489Y0014773
X00071628Y00147238
X0007239Y00185674
X00072773Y00212344
Y00244378
X00088138Y0023749
X0007239Y00278384
X00072773Y00304378
Y00331216
X00095504
X00088413Y0034583
X00072773Y00355918
X00073023Y00375412
X00072773Y00392684
X00095023Y0037417
X00165953Y00375412
X00201558
X00213953
X00189484Y00348408
X00141853
X00148336Y00340378
X00144883Y00262282
X0016637Y00239522
X00189953
X00201953
X00213953
X00051562Y00176276
X00025146Y00175514
X0000762Y00176276
X00020066Y00097472
Y00060452
X00111506Y0006223
X00124714Y00049364
X00125476Y00016256
X00120659Y00097642
X00094234Y0010541
X00085863Y0041275
X00061508Y00410203
X00061214Y00432816
X00074213Y00429768
X00079756Y00439674
Y00449326
X00057213Y004498
Y00491135
X00085023Y00516084
X00081953Y00571319
X00129953Y00556634
X00151398Y00537286
X00193191Y00525858
Y00500601
X00222453Y00486409
X00207776Y00449072
X00141853Y00440332
X00136273Y00468276
X00148336Y00467872
X00157163Y00406699
X00037555Y00410203
X00013933
X00024008Y00511246
Y00530883
X00232845Y00539729
X00284226Y00596392
X00357806Y00608956
X00366268Y00624332
X00428263Y00608956
X00450263
X00461263
X00472263Y0060902
X00508032Y00563363
X00542036Y00554863
Y00530755
X00507559Y00513755
X00514096Y00477774
X00482092Y00489074
X00474613Y00459799
X00429006Y00455359
Y0042672
X00428263Y00487212
X00335398Y00485035
X00322662Y00503556
X0030226Y00463988
X00291966Y00449625
X00284139Y004498
X00318262Y0042672
X003175Y0041275
X00335073Y00406699
X00369062Y00411734
X00339934Y0044516
X00345435Y00455014
X00368237Y00525858
X00346941Y00556028
X00542036Y00591956
X00557956Y00608956
X0059182Y00493217
X00597662Y00447548
X0059182Y00426212
X00561488Y00425687
X00230508Y00429768
X00625348Y00409194
T03
X00375666Y00226314
X00388366
Y00239014
X00375666
Y00251714
X00388366
Y00264414
Y00277114
X00375666
Y00264414
T05
X0046228Y00033274
X0048768
X0051308
X00297181Y0060709
X00271781
X00246381
T06
X00649732Y00023368
X00025654Y00024638
X00024008Y00618918
X00649732Y00619252
M30
